<mxfile host="Electron" modified="2023-11-22T20:23:49.554Z" agent="Mozilla/5.0 (Macintosh; Intel Mac OS X 10_15_7) AppleWebKit/537.36 (KHTML, like Gecko) draw.io/22.0.3 Chrome/114.0.5735.289 Electron/25.8.4 Safari/537.36" etag="v8TsJfbDAsU6oP2mrggi" version="22.0.3" type="device">
  <diagram name="Page-1" id="KHEG1tH6o49Dtw4MLRcq">
    <mxGraphModel dx="1160" dy="1951" grid="1" gridSize="10" guides="1" tooltips="1" connect="1" arrows="1" fold="1" page="0" pageScale="1" pageWidth="827" pageHeight="1169" background="none" math="0" shadow="0">
      <root>
        <mxCell id="0" />
        <mxCell id="1" parent="0" />
        <mxCell id="cCel9YPEQvIzqPeBJZ7E-25" value="&lt;font style=&quot;font-size: 18px;&quot;&gt;&lt;b&gt;flights&lt;/b&gt;&lt;/font&gt;" style="swimlane;fontStyle=0;childLayout=stackLayout;horizontal=1;startSize=40;fillColor=#0050ef;horizontalStack=0;resizeParent=1;resizeParentMax=0;resizeLast=0;collapsible=1;marginBottom=0;whiteSpace=wrap;html=1;fontColor=#ffffff;strokeColor=#001DBC;labelBackgroundColor=none;strokeWidth=5;" parent="1" vertex="1">
          <mxGeometry x="2760" y="1200" width="360" height="360" as="geometry" />
        </mxCell>
        <mxCell id="cCel9YPEQvIzqPeBJZ7E-26" value="&lt;b style=&quot;font-size: 14px;&quot;&gt;id&lt;/b&gt;: uuid PK" style="text;align=left;verticalAlign=middle;spacingLeft=4;spacingRight=4;overflow=hidden;rotatable=0;points=[[0,0.5],[1,0.5]];portConstraint=eastwest;whiteSpace=wrap;html=1;labelBackgroundColor=none;fontSize=14;fillColor=#0050ef;strokeColor=#001DBC;fontColor=#ffffff;" parent="cCel9YPEQvIzqPeBJZ7E-25" vertex="1">
          <mxGeometry y="40" width="360" height="40" as="geometry" />
        </mxCell>
        <mxCell id="cCel9YPEQvIzqPeBJZ7E-43" value="&lt;b style=&quot;font-size: 14px;&quot;&gt;airplane_id&lt;/b&gt;: int not null FK -&amp;gt; airplanes" style="text;align=left;verticalAlign=middle;spacingLeft=4;spacingRight=4;overflow=hidden;rotatable=0;points=[[0,0.5],[1,0.5]];portConstraint=eastwest;whiteSpace=wrap;html=1;labelBackgroundColor=none;fontSize=14;" parent="cCel9YPEQvIzqPeBJZ7E-25" vertex="1">
          <mxGeometry y="80" width="360" height="40" as="geometry" />
        </mxCell>
        <mxCell id="cCel9YPEQvIzqPeBJZ7E-27" value="&lt;b style=&quot;font-size: 14px;&quot;&gt;departure_airport_id&lt;/b&gt;: int not null FK -&amp;gt; airports" style="text;align=left;verticalAlign=middle;spacingLeft=4;spacingRight=4;overflow=hidden;rotatable=0;points=[[0,0.5],[1,0.5]];portConstraint=eastwest;whiteSpace=wrap;html=1;labelBackgroundColor=none;fontSize=14;" parent="cCel9YPEQvIzqPeBJZ7E-25" vertex="1">
          <mxGeometry y="120" width="360" height="40" as="geometry" />
        </mxCell>
        <mxCell id="cCel9YPEQvIzqPeBJZ7E-28" value="&lt;b style=&quot;font-size: 14px;&quot;&gt;arrival_airport_id&lt;/b&gt;: serial not null FK -&amp;gt; airports" style="text;align=left;verticalAlign=middle;spacingLeft=4;spacingRight=4;overflow=hidden;rotatable=0;points=[[0,0.5],[1,0.5]];portConstraint=eastwest;whiteSpace=wrap;html=1;labelBackgroundColor=none;fontSize=14;" parent="cCel9YPEQvIzqPeBJZ7E-25" vertex="1">
          <mxGeometry y="160" width="360" height="40" as="geometry" />
        </mxCell>
        <mxCell id="cCel9YPEQvIzqPeBJZ7E-40" value="&lt;b style=&quot;font-size: 14px;&quot;&gt;departure_date_time_utc&lt;/b&gt;: timestamp not null" style="text;align=left;verticalAlign=middle;spacingLeft=4;spacingRight=4;overflow=hidden;rotatable=0;points=[[0,0.5],[1,0.5]];portConstraint=eastwest;whiteSpace=wrap;html=1;labelBackgroundColor=none;fontSize=14;" parent="cCel9YPEQvIzqPeBJZ7E-25" vertex="1">
          <mxGeometry y="200" width="360" height="40" as="geometry" />
        </mxCell>
        <mxCell id="cCel9YPEQvIzqPeBJZ7E-41" value="&lt;b style=&quot;font-size: 14px;&quot;&gt;arrival_date_time_utc&lt;/b&gt;: timestamp not null" style="text;align=left;verticalAlign=middle;spacingLeft=4;spacingRight=4;overflow=hidden;rotatable=0;points=[[0,0.5],[1,0.5]];portConstraint=eastwest;whiteSpace=wrap;html=1;labelBackgroundColor=none;fontSize=14;" parent="cCel9YPEQvIzqPeBJZ7E-25" vertex="1">
          <mxGeometry y="240" width="360" height="40" as="geometry" />
        </mxCell>
        <mxCell id="cCel9YPEQvIzqPeBJZ7E-29" value="&lt;b style=&quot;font-size: 14px;&quot;&gt;departure_gate_id&lt;/b&gt;: int not null FK -&amp;gt; gates" style="text;align=left;verticalAlign=middle;spacingLeft=4;spacingRight=4;overflow=hidden;rotatable=0;points=[[0,0.5],[1,0.5]];portConstraint=eastwest;whiteSpace=wrap;html=1;labelBackgroundColor=none;fontSize=14;" parent="cCel9YPEQvIzqPeBJZ7E-25" vertex="1">
          <mxGeometry y="280" width="360" height="40" as="geometry" />
        </mxCell>
        <mxCell id="cCel9YPEQvIzqPeBJZ7E-42" value="&lt;b style=&quot;font-size: 14px;&quot;&gt;arrival_gate_id&lt;/b&gt;: int not null FK -&amp;gt; gates" style="text;align=left;verticalAlign=middle;spacingLeft=4;spacingRight=4;overflow=hidden;rotatable=0;points=[[0,0.5],[1,0.5]];portConstraint=eastwest;whiteSpace=wrap;html=1;labelBackgroundColor=none;fontSize=14;" parent="cCel9YPEQvIzqPeBJZ7E-25" vertex="1">
          <mxGeometry y="320" width="360" height="40" as="geometry" />
        </mxCell>
        <mxCell id="cCel9YPEQvIzqPeBJZ7E-53" value="&lt;font style=&quot;font-size: 18px;&quot;&gt;&lt;b&gt;airports&lt;/b&gt;&lt;/font&gt;" style="swimlane;fontStyle=0;childLayout=stackLayout;horizontal=1;startSize=40;fillColor=#0050ef;horizontalStack=0;resizeParent=1;resizeParentMax=0;resizeLast=0;collapsible=1;marginBottom=0;whiteSpace=wrap;html=1;fontColor=#ffffff;strokeColor=#001DBC;labelBackgroundColor=none;strokeWidth=5;" parent="1" vertex="1">
          <mxGeometry x="2080" y="1480" width="360" height="240" as="geometry" />
        </mxCell>
        <mxCell id="cCel9YPEQvIzqPeBJZ7E-54" value="&lt;b style=&quot;font-size: 14px;&quot;&gt;id&lt;/b&gt;: serial PK" style="text;strokeColor=#001DBC;fillColor=#0050ef;align=left;verticalAlign=middle;spacingLeft=4;spacingRight=4;overflow=hidden;rotatable=0;points=[[0,0.5],[1,0.5]];portConstraint=eastwest;whiteSpace=wrap;html=1;labelBackgroundColor=none;fontColor=#ffffff;fontSize=14;" parent="cCel9YPEQvIzqPeBJZ7E-53" vertex="1">
          <mxGeometry y="40" width="360" height="40" as="geometry" />
        </mxCell>
        <mxCell id="cCel9YPEQvIzqPeBJZ7E-55" value="&lt;b style=&quot;font-size: 14px;&quot;&gt;name&lt;/b&gt;: text not null" style="text;align=left;verticalAlign=middle;spacingLeft=4;spacingRight=4;overflow=hidden;rotatable=0;points=[[0,0.5],[1,0.5]];portConstraint=eastwest;whiteSpace=wrap;html=1;labelBackgroundColor=none;fontSize=14;" parent="cCel9YPEQvIzqPeBJZ7E-53" vertex="1">
          <mxGeometry y="80" width="360" height="40" as="geometry" />
        </mxCell>
        <mxCell id="cCel9YPEQvIzqPeBJZ7E-56" value="&lt;b&gt;iata_code: &lt;/b&gt;text not null unique" style="text;align=left;verticalAlign=middle;spacingLeft=4;spacingRight=4;overflow=hidden;rotatable=0;points=[[0,0.5],[1,0.5]];portConstraint=eastwest;whiteSpace=wrap;html=1;labelBackgroundColor=none;fontSize=14;" parent="cCel9YPEQvIzqPeBJZ7E-53" vertex="1">
          <mxGeometry y="120" width="360" height="40" as="geometry" />
        </mxCell>
        <mxCell id="cCel9YPEQvIzqPeBJZ7E-57" value="&lt;b&gt;city: &lt;/b&gt;text not null" style="text;align=left;verticalAlign=middle;spacingLeft=4;spacingRight=4;overflow=hidden;rotatable=0;points=[[0,0.5],[1,0.5]];portConstraint=eastwest;whiteSpace=wrap;html=1;labelBackgroundColor=none;fontSize=14;" parent="cCel9YPEQvIzqPeBJZ7E-53" vertex="1">
          <mxGeometry y="160" width="360" height="40" as="geometry" />
        </mxCell>
        <mxCell id="cCel9YPEQvIzqPeBJZ7E-58" value="&lt;b style=&quot;font-size: 14px;&quot;&gt;country&lt;/b&gt;: text not null" style="text;align=left;verticalAlign=middle;spacingLeft=4;spacingRight=4;overflow=hidden;rotatable=0;points=[[0,0.5],[1,0.5]];portConstraint=eastwest;whiteSpace=wrap;html=1;labelBackgroundColor=none;fontSize=14;" parent="cCel9YPEQvIzqPeBJZ7E-53" vertex="1">
          <mxGeometry y="200" width="360" height="40" as="geometry" />
        </mxCell>
        <mxCell id="cCel9YPEQvIzqPeBJZ7E-151" value="&lt;font style=&quot;font-size: 18px;&quot;&gt;&lt;b&gt;gates&lt;/b&gt;&lt;/font&gt;" style="swimlane;fontStyle=0;childLayout=stackLayout;horizontal=1;startSize=40;fillColor=#0050ef;horizontalStack=0;resizeParent=1;resizeParentMax=0;resizeLast=0;collapsible=1;marginBottom=0;whiteSpace=wrap;html=1;fontColor=#ffffff;strokeColor=#001DBC;labelBackgroundColor=none;" parent="1" vertex="1">
          <mxGeometry x="2760" y="1640" width="360" height="200" as="geometry" />
        </mxCell>
        <mxCell id="cCel9YPEQvIzqPeBJZ7E-152" value="&lt;b style=&quot;font-size: 14px;&quot;&gt;id&lt;/b&gt;: serial PK" style="text;strokeColor=#001DBC;fillColor=#0050ef;align=left;verticalAlign=middle;spacingLeft=4;spacingRight=4;overflow=hidden;rotatable=0;points=[[0,0.5],[1,0.5]];portConstraint=eastwest;whiteSpace=wrap;html=1;labelBackgroundColor=none;fontColor=#ffffff;fontSize=14;" parent="cCel9YPEQvIzqPeBJZ7E-151" vertex="1">
          <mxGeometry y="40" width="360" height="40" as="geometry" />
        </mxCell>
        <mxCell id="cCel9YPEQvIzqPeBJZ7E-153" value="&lt;b style=&quot;font-size: 14px;&quot;&gt;name&lt;/b&gt;: text not null" style="text;align=left;verticalAlign=middle;spacingLeft=4;spacingRight=4;overflow=hidden;rotatable=0;points=[[0,0.5],[1,0.5]];portConstraint=eastwest;whiteSpace=wrap;html=1;labelBackgroundColor=none;fontSize=14;" parent="cCel9YPEQvIzqPeBJZ7E-151" vertex="1">
          <mxGeometry y="80" width="360" height="40" as="geometry" />
        </mxCell>
        <mxCell id="cCel9YPEQvIzqPeBJZ7E-154" value="&lt;b&gt;terminal: &lt;/b&gt;text not null" style="text;align=left;verticalAlign=middle;spacingLeft=4;spacingRight=4;overflow=hidden;rotatable=0;points=[[0,0.5],[1,0.5]];portConstraint=eastwest;whiteSpace=wrap;html=1;labelBackgroundColor=none;fontSize=14;" parent="cCel9YPEQvIzqPeBJZ7E-151" vertex="1">
          <mxGeometry y="120" width="360" height="40" as="geometry" />
        </mxCell>
        <mxCell id="cCel9YPEQvIzqPeBJZ7E-155" value="&lt;b&gt;airport_id: &lt;/b&gt;smallint not null FK -&amp;gt; airports" style="text;align=left;verticalAlign=middle;spacingLeft=4;spacingRight=4;overflow=hidden;rotatable=0;points=[[0,0.5],[1,0.5]];portConstraint=eastwest;whiteSpace=wrap;html=1;labelBackgroundColor=none;fontSize=14;" parent="cCel9YPEQvIzqPeBJZ7E-151" vertex="1">
          <mxGeometry y="160" width="360" height="40" as="geometry" />
        </mxCell>
        <mxCell id="cCel9YPEQvIzqPeBJZ7E-162" value="&lt;font style=&quot;font-size: 18px;&quot;&gt;&lt;b&gt;airplanes&lt;br&gt;&lt;/b&gt;&lt;/font&gt;" style="swimlane;fontStyle=0;childLayout=stackLayout;horizontal=1;startSize=40;fillColor=#0050ef;horizontalStack=0;resizeParent=1;resizeParentMax=0;resizeLast=0;collapsible=1;marginBottom=0;whiteSpace=wrap;html=1;fontColor=#ffffff;strokeColor=#001DBC;labelBackgroundColor=none;" parent="1" vertex="1">
          <mxGeometry x="2080" y="1200" width="360" height="200" as="geometry" />
        </mxCell>
        <mxCell id="cCel9YPEQvIzqPeBJZ7E-163" value="&lt;b style=&quot;font-size: 14px;&quot;&gt;id&lt;/b&gt;: serial PK" style="text;strokeColor=#001DBC;fillColor=#0050ef;align=left;verticalAlign=middle;spacingLeft=4;spacingRight=4;overflow=hidden;rotatable=0;points=[[0,0.5],[1,0.5]];portConstraint=eastwest;whiteSpace=wrap;html=1;labelBackgroundColor=none;fontColor=#ffffff;fontSize=14;" parent="cCel9YPEQvIzqPeBJZ7E-162" vertex="1">
          <mxGeometry y="40" width="360" height="40" as="geometry" />
        </mxCell>
        <mxCell id="cCel9YPEQvIzqPeBJZ7E-165" value="&lt;b&gt;model_id: &lt;/b&gt;smallint not null FK -&amp;gt; airplane_models" style="text;align=left;verticalAlign=middle;spacingLeft=4;spacingRight=4;overflow=hidden;rotatable=0;points=[[0,0.5],[1,0.5]];portConstraint=eastwest;whiteSpace=wrap;html=1;labelBackgroundColor=none;fontSize=14;" parent="cCel9YPEQvIzqPeBJZ7E-162" vertex="1">
          <mxGeometry y="80" width="360" height="40" as="geometry" />
        </mxCell>
        <mxCell id="cCel9YPEQvIzqPeBJZ7E-166" value="&lt;b&gt;airline_id: &lt;/b&gt;smallint not null FK -&amp;gt; airlines" style="text;align=left;verticalAlign=middle;spacingLeft=4;spacingRight=4;overflow=hidden;rotatable=0;points=[[0,0.5],[1,0.5]];portConstraint=eastwest;whiteSpace=wrap;html=1;labelBackgroundColor=none;fontSize=14;" parent="cCel9YPEQvIzqPeBJZ7E-162" vertex="1">
          <mxGeometry y="120" width="360" height="40" as="geometry" />
        </mxCell>
        <mxCell id="cCel9YPEQvIzqPeBJZ7E-181" value="&lt;b&gt;airport_id: &lt;/b&gt;smallint not null FK -&amp;gt; airports" style="text;align=left;verticalAlign=middle;spacingLeft=4;spacingRight=4;overflow=hidden;rotatable=0;points=[[0,0.5],[1,0.5]];portConstraint=eastwest;whiteSpace=wrap;html=1;labelBackgroundColor=none;fontSize=14;" parent="cCel9YPEQvIzqPeBJZ7E-162" vertex="1">
          <mxGeometry y="160" width="360" height="40" as="geometry" />
        </mxCell>
        <mxCell id="cCel9YPEQvIzqPeBJZ7E-167" value="&lt;font style=&quot;font-size: 18px;&quot;&gt;&lt;b&gt;airplane_models&lt;br&gt;&lt;/b&gt;&lt;/font&gt;" style="swimlane;fontStyle=0;childLayout=stackLayout;horizontal=1;startSize=40;fillColor=#0050ef;horizontalStack=0;resizeParent=1;resizeParentMax=0;resizeLast=0;collapsible=1;marginBottom=0;whiteSpace=wrap;html=1;fontColor=#ffffff;strokeColor=#001DBC;labelBackgroundColor=none;" parent="1" vertex="1">
          <mxGeometry x="2080" y="2040" width="360" height="160" as="geometry" />
        </mxCell>
        <mxCell id="cCel9YPEQvIzqPeBJZ7E-168" value="&lt;b style=&quot;font-size: 14px;&quot;&gt;id&lt;/b&gt;: serial PK" style="text;strokeColor=#001DBC;fillColor=#0050ef;align=left;verticalAlign=middle;spacingLeft=4;spacingRight=4;overflow=hidden;rotatable=0;points=[[0,0.5],[1,0.5]];portConstraint=eastwest;whiteSpace=wrap;html=1;labelBackgroundColor=none;fontColor=#ffffff;fontSize=14;" parent="cCel9YPEQvIzqPeBJZ7E-167" vertex="1">
          <mxGeometry y="40" width="360" height="40" as="geometry" />
        </mxCell>
        <mxCell id="cCel9YPEQvIzqPeBJZ7E-171" value="&lt;b&gt;manufacturer: &lt;/b&gt;text not null" style="text;align=left;verticalAlign=middle;spacingLeft=4;spacingRight=4;overflow=hidden;rotatable=0;points=[[0,0.5],[1,0.5]];portConstraint=eastwest;whiteSpace=wrap;html=1;labelBackgroundColor=none;fontSize=14;" parent="cCel9YPEQvIzqPeBJZ7E-167" vertex="1">
          <mxGeometry y="80" width="360" height="40" as="geometry" />
        </mxCell>
        <mxCell id="cCel9YPEQvIzqPeBJZ7E-170" value="&lt;b&gt;title: &lt;/b&gt;text not null" style="text;align=left;verticalAlign=middle;spacingLeft=4;spacingRight=4;overflow=hidden;rotatable=0;points=[[0,0.5],[1,0.5]];portConstraint=eastwest;whiteSpace=wrap;html=1;labelBackgroundColor=none;fontSize=14;" parent="cCel9YPEQvIzqPeBJZ7E-167" vertex="1">
          <mxGeometry y="120" width="360" height="40" as="geometry" />
        </mxCell>
        <mxCell id="Wbdcqwvr1IbIfebZv92Z-9" value="&lt;font style=&quot;font-size: 18px;&quot;&gt;&lt;b&gt;[ users ]&lt;br&gt;&lt;/b&gt;&lt;/font&gt;" style="swimlane;fontStyle=0;childLayout=stackLayout;horizontal=1;startSize=40;fillColor=#e3c800;horizontalStack=0;resizeParent=1;resizeParentMax=0;resizeLast=0;collapsible=1;marginBottom=0;whiteSpace=wrap;html=1;strokeColor=#B09500;labelBackgroundColor=none;strokeWidth=5;fontColor=#000000;" parent="1" vertex="1">
          <mxGeometry x="4680" y="720" width="360" height="440" as="geometry" />
        </mxCell>
        <mxCell id="Wbdcqwvr1IbIfebZv92Z-10" value="&lt;b style=&quot;font-size: 14px;&quot;&gt;id&lt;/b&gt;: uuid PK" style="text;strokeColor=#B09500;fillColor=#e3c800;align=left;verticalAlign=middle;spacingLeft=4;spacingRight=4;overflow=hidden;rotatable=0;points=[[0,0.5],[1,0.5]];portConstraint=eastwest;whiteSpace=wrap;html=1;labelBackgroundColor=none;fontColor=#000000;fontSize=14;" parent="Wbdcqwvr1IbIfebZv92Z-9" vertex="1">
          <mxGeometry y="40" width="360" height="40" as="geometry" />
        </mxCell>
        <mxCell id="Wbdcqwvr1IbIfebZv92Z-13" value="&lt;b&gt;created_at: &lt;/b&gt;timestamp not null" style="text;strokeColor=none;fillColor=none;align=left;verticalAlign=middle;spacingLeft=4;spacingRight=4;overflow=hidden;rotatable=0;points=[[0,0.5],[1,0.5]];portConstraint=eastwest;whiteSpace=wrap;html=1;labelBackgroundColor=none;fontColor=#EEEEEE;fontSize=14;" parent="Wbdcqwvr1IbIfebZv92Z-9" vertex="1">
          <mxGeometry y="80" width="360" height="40" as="geometry" />
        </mxCell>
        <mxCell id="Wbdcqwvr1IbIfebZv92Z-11" value="&lt;b style=&quot;font-size: 14px;&quot;&gt;name&lt;/b&gt;: text not null" style="text;strokeColor=none;fillColor=none;align=left;verticalAlign=middle;spacingLeft=4;spacingRight=4;overflow=hidden;rotatable=0;points=[[0,0.5],[1,0.5]];portConstraint=eastwest;whiteSpace=wrap;html=1;labelBackgroundColor=none;fontColor=#EEEEEE;fontSize=14;" parent="Wbdcqwvr1IbIfebZv92Z-9" vertex="1">
          <mxGeometry y="120" width="360" height="40" as="geometry" />
        </mxCell>
        <mxCell id="Wbdcqwvr1IbIfebZv92Z-12" value="&lt;b&gt;surname: &lt;/b&gt;text not null" style="text;strokeColor=none;fillColor=none;align=left;verticalAlign=middle;spacingLeft=4;spacingRight=4;overflow=hidden;rotatable=0;points=[[0,0.5],[1,0.5]];portConstraint=eastwest;whiteSpace=wrap;html=1;labelBackgroundColor=none;fontColor=#EEEEEE;fontSize=14;" parent="Wbdcqwvr1IbIfebZv92Z-9" vertex="1">
          <mxGeometry y="160" width="360" height="40" as="geometry" />
        </mxCell>
        <mxCell id="Wbdcqwvr1IbIfebZv92Z-73" value="&lt;b&gt;patronymic: &lt;/b&gt;text null" style="text;strokeColor=none;fillColor=none;align=left;verticalAlign=middle;spacingLeft=4;spacingRight=4;overflow=hidden;rotatable=0;points=[[0,0.5],[1,0.5]];portConstraint=eastwest;whiteSpace=wrap;html=1;labelBackgroundColor=none;fontColor=#EEEEEE;fontSize=14;" parent="Wbdcqwvr1IbIfebZv92Z-9" vertex="1">
          <mxGeometry y="200" width="360" height="40" as="geometry" />
        </mxCell>
        <mxCell id="Wbdcqwvr1IbIfebZv92Z-30" value="&lt;b&gt;passport_number: &lt;/b&gt;text" style="text;strokeColor=none;fillColor=none;align=left;verticalAlign=middle;spacingLeft=4;spacingRight=4;overflow=hidden;rotatable=0;points=[[0,0.5],[1,0.5]];portConstraint=eastwest;whiteSpace=wrap;html=1;labelBackgroundColor=none;fontColor=#EEEEEE;fontSize=14;" parent="Wbdcqwvr1IbIfebZv92Z-9" vertex="1">
          <mxGeometry y="240" width="360" height="40" as="geometry" />
        </mxCell>
        <mxCell id="Wbdcqwvr1IbIfebZv92Z-8" value="&lt;b&gt;login: &lt;/b&gt;text not null" style="text;strokeColor=none;fillColor=none;align=left;verticalAlign=middle;spacingLeft=4;spacingRight=4;overflow=hidden;rotatable=0;points=[[0,0.5],[1,0.5]];portConstraint=eastwest;whiteSpace=wrap;html=1;labelBackgroundColor=none;fontColor=#EEEEEE;fontSize=14;" parent="Wbdcqwvr1IbIfebZv92Z-9" vertex="1">
          <mxGeometry y="280" width="360" height="40" as="geometry" />
        </mxCell>
        <mxCell id="UgSloFG3NdVFuupZQ96s-207" value="&lt;b&gt;password_hash: &lt;/b&gt;text not null" style="text;strokeColor=none;fillColor=none;align=left;verticalAlign=middle;spacingLeft=4;spacingRight=4;overflow=hidden;rotatable=0;points=[[0,0.5],[1,0.5]];portConstraint=eastwest;whiteSpace=wrap;html=1;labelBackgroundColor=none;fontColor=#EEEEEE;fontSize=14;" parent="Wbdcqwvr1IbIfebZv92Z-9" vertex="1">
          <mxGeometry y="320" width="360" height="40" as="geometry" />
        </mxCell>
        <mxCell id="l3O2OO2_3pEZGnwRh9ON-2" value="&lt;b&gt;salt: &lt;/b&gt;text not null" style="text;strokeColor=none;fillColor=none;align=left;verticalAlign=middle;spacingLeft=4;spacingRight=4;overflow=hidden;rotatable=0;points=[[0,0.5],[1,0.5]];portConstraint=eastwest;whiteSpace=wrap;html=1;labelBackgroundColor=none;fontColor=#EEEEEE;fontSize=14;" vertex="1" parent="Wbdcqwvr1IbIfebZv92Z-9">
          <mxGeometry y="360" width="360" height="40" as="geometry" />
        </mxCell>
        <mxCell id="UgSloFG3NdVFuupZQ96s-316" value="&lt;b&gt;bonuses: int not null&lt;/b&gt;" style="text;strokeColor=none;fillColor=none;align=left;verticalAlign=middle;spacingLeft=4;spacingRight=4;overflow=hidden;rotatable=0;points=[[0,0.5],[1,0.5]];portConstraint=eastwest;whiteSpace=wrap;html=1;labelBackgroundColor=none;fontColor=#EEEEEE;fontSize=14;" parent="Wbdcqwvr1IbIfebZv92Z-9" vertex="1">
          <mxGeometry y="400" width="360" height="40" as="geometry" />
        </mxCell>
        <mxCell id="Wbdcqwvr1IbIfebZv92Z-44" value="&lt;font style=&quot;font-size: 18px;&quot;&gt;&lt;b&gt;[ positions ]&lt;/b&gt;&lt;/font&gt;" style="swimlane;fontStyle=0;childLayout=stackLayout;horizontal=1;startSize=40;fillColor=#d80073;horizontalStack=0;resizeParent=1;resizeParentMax=0;resizeLast=0;collapsible=1;marginBottom=0;whiteSpace=wrap;html=1;fontColor=#ffffff;strokeColor=#A50040;labelBackgroundColor=none;strokeWidth=5;" parent="1" vertex="1">
          <mxGeometry x="2080" y="310" width="360" height="160" as="geometry" />
        </mxCell>
        <mxCell id="Wbdcqwvr1IbIfebZv92Z-45" value="&lt;b style=&quot;font-size: 14px;&quot;&gt;id&lt;/b&gt;: smallserial PK" style="text;strokeColor=#A50040;fillColor=#d80073;align=left;verticalAlign=middle;spacingLeft=4;spacingRight=4;overflow=hidden;rotatable=0;points=[[0,0.5],[1,0.5]];portConstraint=eastwest;whiteSpace=wrap;html=1;labelBackgroundColor=none;fontColor=#ffffff;fontSize=14;" parent="Wbdcqwvr1IbIfebZv92Z-44" vertex="1">
          <mxGeometry y="40" width="360" height="40" as="geometry" />
        </mxCell>
        <mxCell id="Wbdcqwvr1IbIfebZv92Z-48" value="&lt;b&gt;title: &lt;/b&gt;text not null" style="text;align=left;verticalAlign=middle;spacingLeft=4;spacingRight=4;overflow=hidden;rotatable=0;points=[[0,0.5],[1,0.5]];portConstraint=eastwest;whiteSpace=wrap;html=1;labelBackgroundColor=none;fontSize=14;" parent="Wbdcqwvr1IbIfebZv92Z-44" vertex="1">
          <mxGeometry y="80" width="360" height="40" as="geometry" />
        </mxCell>
        <mxCell id="Wbdcqwvr1IbIfebZv92Z-50" value="&lt;b&gt;description: &lt;/b&gt;text not null" style="text;align=left;verticalAlign=middle;spacingLeft=4;spacingRight=4;overflow=hidden;rotatable=0;points=[[0,0.5],[1,0.5]];portConstraint=eastwest;whiteSpace=wrap;html=1;labelBackgroundColor=none;fontSize=14;" parent="Wbdcqwvr1IbIfebZv92Z-44" vertex="1">
          <mxGeometry y="120" width="360" height="40" as="geometry" />
        </mxCell>
        <mxCell id="Wbdcqwvr1IbIfebZv92Z-51" value="&lt;font style=&quot;font-size: 18px;&quot;&gt;&lt;b&gt;[ roles ]&lt;/b&gt;&lt;/font&gt;" style="swimlane;fontStyle=0;childLayout=stackLayout;horizontal=1;startSize=40;fillColor=#d80073;horizontalStack=0;resizeParent=1;resizeParentMax=0;resizeLast=0;collapsible=1;marginBottom=0;whiteSpace=wrap;html=1;fontColor=#ffffff;strokeColor=#A50040;labelBackgroundColor=none;strokeWidth=5;" parent="1" vertex="1">
          <mxGeometry x="2080" y="670" width="360" height="200" as="geometry" />
        </mxCell>
        <mxCell id="Wbdcqwvr1IbIfebZv92Z-52" value="&lt;b style=&quot;font-size: 14px;&quot;&gt;id&lt;/b&gt;: smallserial PK" style="text;strokeColor=#A50040;fillColor=#d80073;align=left;verticalAlign=middle;spacingLeft=4;spacingRight=4;overflow=hidden;rotatable=0;points=[[0,0.5],[1,0.5]];portConstraint=eastwest;whiteSpace=wrap;html=1;labelBackgroundColor=none;fontColor=#ffffff;fontSize=14;" parent="Wbdcqwvr1IbIfebZv92Z-51" vertex="1">
          <mxGeometry y="40" width="360" height="40" as="geometry" />
        </mxCell>
        <mxCell id="Wbdcqwvr1IbIfebZv92Z-53" value="&lt;b&gt;title: &lt;/b&gt;text not null" style="text;align=left;verticalAlign=middle;spacingLeft=4;spacingRight=4;overflow=hidden;rotatable=0;points=[[0,0.5],[1,0.5]];portConstraint=eastwest;whiteSpace=wrap;html=1;labelBackgroundColor=none;fontSize=14;" parent="Wbdcqwvr1IbIfebZv92Z-51" vertex="1">
          <mxGeometry y="80" width="360" height="40" as="geometry" />
        </mxCell>
        <mxCell id="Wbdcqwvr1IbIfebZv92Z-54" value="&lt;b&gt;description: &lt;/b&gt;text not null" style="text;align=left;verticalAlign=middle;spacingLeft=4;spacingRight=4;overflow=hidden;rotatable=0;points=[[0,0.5],[1,0.5]];portConstraint=eastwest;whiteSpace=wrap;html=1;labelBackgroundColor=none;fontSize=14;" parent="Wbdcqwvr1IbIfebZv92Z-51" vertex="1">
          <mxGeometry y="120" width="360" height="40" as="geometry" />
        </mxCell>
        <mxCell id="Wbdcqwvr1IbIfebZv92Z-55" value="&lt;b&gt;system_name: &lt;/b&gt;text not null unique" style="text;align=left;verticalAlign=middle;spacingLeft=4;spacingRight=4;overflow=hidden;rotatable=0;points=[[0,0.5],[1,0.5]];portConstraint=eastwest;whiteSpace=wrap;html=1;labelBackgroundColor=none;fontSize=14;" parent="Wbdcqwvr1IbIfebZv92Z-51" vertex="1">
          <mxGeometry y="160" width="360" height="40" as="geometry" />
        </mxCell>
        <mxCell id="Wbdcqwvr1IbIfebZv92Z-60" value="&lt;font style=&quot;font-size: 18px;&quot;&gt;&lt;b&gt;[ positions_roles ]&lt;/b&gt;&lt;/font&gt;" style="swimlane;fontStyle=0;childLayout=stackLayout;horizontal=1;startSize=40;fillColor=#d80073;horizontalStack=0;resizeParent=1;resizeParentMax=0;resizeLast=0;collapsible=1;marginBottom=0;whiteSpace=wrap;html=1;fontColor=#ffffff;strokeColor=#A50040;labelBackgroundColor=none;strokeWidth=5;" parent="1" vertex="1">
          <mxGeometry x="2080" y="510" width="360" height="120" as="geometry" />
        </mxCell>
        <mxCell id="Wbdcqwvr1IbIfebZv92Z-62" value="&lt;b&gt;position_id: smallint not null&lt;/b&gt;" style="text;strokeColor=#A50040;fillColor=#d80073;align=left;verticalAlign=middle;spacingLeft=4;spacingRight=4;overflow=hidden;rotatable=0;points=[[0,0.5],[1,0.5]];portConstraint=eastwest;whiteSpace=wrap;html=1;labelBackgroundColor=none;fontColor=#ffffff;fontSize=14;" parent="Wbdcqwvr1IbIfebZv92Z-60" vertex="1">
          <mxGeometry y="40" width="360" height="40" as="geometry" />
        </mxCell>
        <mxCell id="Wbdcqwvr1IbIfebZv92Z-61" value="&lt;b&gt;role_id: smallint not null&lt;/b&gt;" style="text;strokeColor=#A50040;fillColor=#d80073;align=left;verticalAlign=middle;spacingLeft=4;spacingRight=4;overflow=hidden;rotatable=0;points=[[0,0.5],[1,0.5]];portConstraint=eastwest;whiteSpace=wrap;html=1;labelBackgroundColor=none;fontColor=#ffffff;fontSize=14;" parent="Wbdcqwvr1IbIfebZv92Z-60" vertex="1">
          <mxGeometry y="80" width="360" height="40" as="geometry" />
        </mxCell>
        <mxCell id="Wbdcqwvr1IbIfebZv92Z-67" style="edgeStyle=orthogonalEdgeStyle;rounded=1;orthogonalLoop=1;jettySize=auto;html=1;entryX=0;entryY=0.5;entryDx=0;entryDy=0;labelBackgroundColor=none;strokeColor=#A50040;fontColor=default;strokeWidth=3;fillColor=#d80073;" parent="1" source="Wbdcqwvr1IbIfebZv92Z-62" target="Wbdcqwvr1IbIfebZv92Z-45" edge="1">
          <mxGeometry relative="1" as="geometry">
            <Array as="points">
              <mxPoint x="2040" y="570" />
              <mxPoint x="2040" y="370" />
            </Array>
          </mxGeometry>
        </mxCell>
        <mxCell id="Wbdcqwvr1IbIfebZv92Z-77" style="edgeStyle=orthogonalEdgeStyle;shape=connector;rounded=1;orthogonalLoop=1;jettySize=auto;html=1;entryX=0;entryY=0.5;entryDx=0;entryDy=0;labelBackgroundColor=none;strokeColor=#A50040;strokeWidth=3;align=center;verticalAlign=middle;fontFamily=Helvetica;fontSize=11;fontColor=default;endArrow=classic;fillColor=#d80073;" parent="1" source="Wbdcqwvr1IbIfebZv92Z-61" target="Wbdcqwvr1IbIfebZv92Z-52" edge="1">
          <mxGeometry relative="1" as="geometry">
            <Array as="points">
              <mxPoint x="2040" y="610" />
              <mxPoint x="2040" y="730" />
            </Array>
          </mxGeometry>
        </mxCell>
        <mxCell id="Wbdcqwvr1IbIfebZv92Z-92" value="&lt;font style=&quot;font-size: 18px;&quot;&gt;&lt;b&gt;[ staff ]&lt;br&gt;&lt;/b&gt;&lt;/font&gt;" style="swimlane;fontStyle=0;childLayout=stackLayout;horizontal=1;startSize=40;fillColor=#d80073;horizontalStack=0;resizeParent=1;resizeParentMax=0;resizeLast=0;collapsible=1;marginBottom=0;whiteSpace=wrap;html=1;fontColor=#ffffff;strokeColor=#A50040;labelBackgroundColor=none;strokeWidth=5;" parent="1" vertex="1">
          <mxGeometry x="2600" y="310" width="360" height="360" as="geometry" />
        </mxCell>
        <mxCell id="Wbdcqwvr1IbIfebZv92Z-93" value="&lt;b style=&quot;font-size: 14px;&quot;&gt;id&lt;/b&gt;: uuid PK" style="text;strokeColor=#A50040;fillColor=#d80073;align=left;verticalAlign=middle;spacingLeft=4;spacingRight=4;overflow=hidden;rotatable=0;points=[[0,0.5],[1,0.5]];portConstraint=eastwest;whiteSpace=wrap;html=1;labelBackgroundColor=none;fontColor=#ffffff;fontSize=14;" parent="Wbdcqwvr1IbIfebZv92Z-92" vertex="1">
          <mxGeometry y="40" width="360" height="40" as="geometry" />
        </mxCell>
        <mxCell id="Wbdcqwvr1IbIfebZv92Z-94" value="&lt;b style=&quot;font-size: 14px;&quot;&gt;name&lt;/b&gt;: text not null" style="text;align=left;verticalAlign=middle;spacingLeft=4;spacingRight=4;overflow=hidden;rotatable=0;points=[[0,0.5],[1,0.5]];portConstraint=eastwest;whiteSpace=wrap;html=1;labelBackgroundColor=none;fontSize=14;" parent="Wbdcqwvr1IbIfebZv92Z-92" vertex="1">
          <mxGeometry y="80" width="360" height="40" as="geometry" />
        </mxCell>
        <mxCell id="Wbdcqwvr1IbIfebZv92Z-95" value="&lt;b&gt;surname: &lt;/b&gt;text not null" style="text;align=left;verticalAlign=middle;spacingLeft=4;spacingRight=4;overflow=hidden;rotatable=0;points=[[0,0.5],[1,0.5]];portConstraint=eastwest;whiteSpace=wrap;html=1;labelBackgroundColor=none;fontSize=14;" parent="Wbdcqwvr1IbIfebZv92Z-92" vertex="1">
          <mxGeometry y="120" width="360" height="40" as="geometry" />
        </mxCell>
        <mxCell id="Wbdcqwvr1IbIfebZv92Z-96" value="&lt;b&gt;patronymic: &lt;/b&gt;text null" style="text;align=left;verticalAlign=middle;spacingLeft=4;spacingRight=4;overflow=hidden;rotatable=0;points=[[0,0.5],[1,0.5]];portConstraint=eastwest;whiteSpace=wrap;html=1;labelBackgroundColor=none;fontSize=14;" parent="Wbdcqwvr1IbIfebZv92Z-92" vertex="1">
          <mxGeometry y="160" width="360" height="40" as="geometry" />
        </mxCell>
        <mxCell id="Wbdcqwvr1IbIfebZv92Z-103" value="&lt;b&gt;position_id: &lt;/b&gt;smallint not null FK -&amp;gt; positions" style="text;align=left;verticalAlign=middle;spacingLeft=4;spacingRight=4;overflow=hidden;rotatable=0;points=[[0,0.5],[1,0.5]];portConstraint=eastwest;whiteSpace=wrap;html=1;labelBackgroundColor=none;fontSize=14;" parent="Wbdcqwvr1IbIfebZv92Z-92" vertex="1">
          <mxGeometry y="200" width="360" height="40" as="geometry" />
        </mxCell>
        <mxCell id="Wbdcqwvr1IbIfebZv92Z-100" value="&lt;b&gt;created_at: &lt;/b&gt;timestamp not null" style="text;align=left;verticalAlign=middle;spacingLeft=4;spacingRight=4;overflow=hidden;rotatable=0;points=[[0,0.5],[1,0.5]];portConstraint=eastwest;whiteSpace=wrap;html=1;labelBackgroundColor=none;fontSize=14;" parent="Wbdcqwvr1IbIfebZv92Z-92" vertex="1">
          <mxGeometry y="240" width="360" height="40" as="geometry" />
        </mxCell>
        <mxCell id="Wbdcqwvr1IbIfebZv92Z-101" value="&lt;b&gt;login: &lt;/b&gt;text not null" style="text;align=left;verticalAlign=middle;spacingLeft=4;spacingRight=4;overflow=hidden;rotatable=0;points=[[0,0.5],[1,0.5]];portConstraint=eastwest;whiteSpace=wrap;html=1;labelBackgroundColor=none;fontSize=14;" parent="Wbdcqwvr1IbIfebZv92Z-92" vertex="1">
          <mxGeometry y="280" width="360" height="40" as="geometry" />
        </mxCell>
        <mxCell id="Wbdcqwvr1IbIfebZv92Z-102" value="&lt;b&gt;password_hash: &lt;/b&gt;text not null" style="text;align=left;verticalAlign=middle;spacingLeft=4;spacingRight=4;overflow=hidden;rotatable=0;points=[[0,0.5],[1,0.5]];portConstraint=eastwest;whiteSpace=wrap;html=1;labelBackgroundColor=none;fontSize=14;" parent="Wbdcqwvr1IbIfebZv92Z-92" vertex="1">
          <mxGeometry y="320" width="360" height="40" as="geometry" />
        </mxCell>
        <mxCell id="Wbdcqwvr1IbIfebZv92Z-104" style="edgeStyle=orthogonalEdgeStyle;shape=connector;rounded=1;orthogonalLoop=1;jettySize=auto;html=1;entryX=1;entryY=0.5;entryDx=0;entryDy=0;labelBackgroundColor=none;strokeColor=#A50040;strokeWidth=3;align=center;verticalAlign=middle;fontFamily=Helvetica;fontSize=12;fontColor=#EEEEEE;endArrow=classic;startSize=40;fillColor=#d80073;" parent="1" source="Wbdcqwvr1IbIfebZv92Z-103" target="Wbdcqwvr1IbIfebZv92Z-45" edge="1">
          <mxGeometry relative="1" as="geometry" />
        </mxCell>
        <mxCell id="UgSloFG3NdVFuupZQ96s-65" value="&lt;font style=&quot;font-size: 18px;&quot;&gt;&lt;b&gt;[ purchased_products ]&lt;br&gt;&lt;/b&gt;&lt;/font&gt;" style="swimlane;fontStyle=0;childLayout=stackLayout;horizontal=1;startSize=40;fillColor=#09555B;horizontalStack=0;resizeParent=1;resizeParentMax=0;resizeLast=0;collapsible=1;marginBottom=0;whiteSpace=wrap;html=1;fontColor=#EEEEEE;strokeColor=#098591;labelBackgroundColor=none;strokeWidth=5;" parent="1" vertex="1">
          <mxGeometry x="4040" y="1560" width="360" height="320" as="geometry" />
        </mxCell>
        <mxCell id="UgSloFG3NdVFuupZQ96s-66" value="&lt;b style=&quot;font-size: 14px;&quot;&gt;id&lt;/b&gt;: uuid PK" style="text;strokeColor=#BAC8D3;fillColor=#09555B;align=left;verticalAlign=middle;spacingLeft=4;spacingRight=4;overflow=hidden;rotatable=0;points=[[0,0.5],[1,0.5]];portConstraint=eastwest;whiteSpace=wrap;html=1;labelBackgroundColor=none;fontColor=#EEEEEE;fontSize=14;" parent="UgSloFG3NdVFuupZQ96s-65" vertex="1">
          <mxGeometry y="40" width="360" height="40" as="geometry" />
        </mxCell>
        <mxCell id="UgSloFG3NdVFuupZQ96s-67" value="&lt;b&gt;product_id: &lt;/b&gt;uuid not null FK -&amp;gt; products" style="text;strokeColor=none;fillColor=none;align=left;verticalAlign=middle;spacingLeft=4;spacingRight=4;overflow=hidden;rotatable=0;points=[[0,0.5],[1,0.5]];portConstraint=eastwest;whiteSpace=wrap;html=1;labelBackgroundColor=none;fontColor=#EEEEEE;fontSize=14;" parent="UgSloFG3NdVFuupZQ96s-65" vertex="1">
          <mxGeometry y="80" width="360" height="40" as="geometry" />
        </mxCell>
        <mxCell id="UgSloFG3NdVFuupZQ96s-85" value="&lt;b&gt;purchase_id: &lt;/b&gt;uuid not null" style="text;strokeColor=none;fillColor=none;align=left;verticalAlign=middle;spacingLeft=4;spacingRight=4;overflow=hidden;rotatable=0;points=[[0,0.5],[1,0.5]];portConstraint=eastwest;whiteSpace=wrap;html=1;labelBackgroundColor=none;fontColor=#EEEEEE;fontSize=14;" parent="UgSloFG3NdVFuupZQ96s-65" vertex="1">
          <mxGeometry y="120" width="360" height="40" as="geometry" />
        </mxCell>
        <mxCell id="l3O2OO2_3pEZGnwRh9ON-3" value="&lt;b&gt;quantity: smallint null&lt;/b&gt;" style="text;strokeColor=none;fillColor=none;align=left;verticalAlign=middle;spacingLeft=4;spacingRight=4;overflow=hidden;rotatable=0;points=[[0,0.5],[1,0.5]];portConstraint=eastwest;whiteSpace=wrap;html=1;labelBackgroundColor=none;fontColor=#EEEEEE;fontSize=14;" vertex="1" parent="UgSloFG3NdVFuupZQ96s-65">
          <mxGeometry y="160" width="360" height="40" as="geometry" />
        </mxCell>
        <mxCell id="UgSloFG3NdVFuupZQ96s-145" value="&lt;b&gt;discriminator: text not null&lt;/b&gt;" style="text;strokeColor=none;fillColor=none;align=left;verticalAlign=middle;spacingLeft=4;spacingRight=4;overflow=hidden;rotatable=0;points=[[0,0.5],[1,0.5]];portConstraint=eastwest;whiteSpace=wrap;html=1;labelBackgroundColor=none;fontColor=#EEEEEE;fontSize=14;" parent="UgSloFG3NdVFuupZQ96s-65" vertex="1">
          <mxGeometry y="200" width="360" height="40" as="geometry" />
        </mxCell>
        <mxCell id="UgSloFG3NdVFuupZQ96s-70" value="&lt;font style=&quot;font-size: 18px;&quot;&gt;&lt;b&gt;[ dicriminator: Ticket ]&lt;br&gt;&lt;/b&gt;&lt;/font&gt;" style="swimlane;fontStyle=0;childLayout=stackLayout;horizontal=1;startSize=40;horizontalStack=0;resizeParent=1;resizeParentMax=0;resizeLast=0;collapsible=1;marginBottom=0;whiteSpace=wrap;html=1;labelBackgroundColor=none;strokeWidth=5;fillColor=#647687;fontColor=#ffffff;strokeColor=#314354;" parent="UgSloFG3NdVFuupZQ96s-65" vertex="1">
          <mxGeometry y="240" width="360" height="80" as="geometry" />
        </mxCell>
        <mxCell id="UgSloFG3NdVFuupZQ96s-88" value="&lt;b&gt;seat_number: &lt;/b&gt;smallint not null" style="text;strokeColor=none;fillColor=none;align=left;verticalAlign=middle;spacingLeft=4;spacingRight=4;overflow=hidden;rotatable=0;points=[[0,0.5],[1,0.5]];portConstraint=eastwest;whiteSpace=wrap;html=1;labelBackgroundColor=none;fontColor=#EEEEEE;fontSize=14;" parent="UgSloFG3NdVFuupZQ96s-70" vertex="1">
          <mxGeometry y="40" width="360" height="40" as="geometry" />
        </mxCell>
        <mxCell id="UgSloFG3NdVFuupZQ96s-2" value="&lt;font style=&quot;font-size: 18px;&quot;&gt;&lt;b&gt;products&lt;br&gt;&lt;/b&gt;&lt;/font&gt;" style="swimlane;fontStyle=0;childLayout=stackLayout;horizontal=1;startSize=40;fillColor=#09555B;horizontalStack=0;resizeParent=1;resizeParentMax=0;resizeLast=0;collapsible=1;marginBottom=0;whiteSpace=wrap;html=1;fontColor=#EEEEEE;strokeColor=#098591;labelBackgroundColor=none;strokeWidth=5;" parent="1" vertex="1">
          <mxGeometry x="3520" y="1760" width="360" height="400" as="geometry" />
        </mxCell>
        <mxCell id="UgSloFG3NdVFuupZQ96s-3" value="&lt;b style=&quot;font-size: 14px;&quot;&gt;id&lt;/b&gt;: uuid PK" style="text;strokeColor=#BAC8D3;fillColor=#09555B;align=left;verticalAlign=middle;spacingLeft=4;spacingRight=4;overflow=hidden;rotatable=0;points=[[0,0.5],[1,0.5]];portConstraint=eastwest;whiteSpace=wrap;html=1;labelBackgroundColor=none;fontColor=#EEEEEE;fontSize=14;" parent="UgSloFG3NdVFuupZQ96s-2" vertex="1">
          <mxGeometry y="40" width="360" height="40" as="geometry" />
        </mxCell>
        <mxCell id="UgSloFG3NdVFuupZQ96s-7" value="&lt;b&gt;title: &lt;/b&gt;text not null" style="text;strokeColor=none;fillColor=none;align=left;verticalAlign=middle;spacingLeft=4;spacingRight=4;overflow=hidden;rotatable=0;points=[[0,0.5],[1,0.5]];portConstraint=eastwest;whiteSpace=wrap;html=1;labelBackgroundColor=none;fontColor=#EEEEEE;fontSize=14;" parent="UgSloFG3NdVFuupZQ96s-2" vertex="1">
          <mxGeometry y="80" width="360" height="40" as="geometry" />
        </mxCell>
        <mxCell id="UgSloFG3NdVFuupZQ96s-29" value="&lt;b&gt;quantity: &lt;/b&gt;int&amp;nbsp;null" style="text;strokeColor=none;fillColor=none;align=left;verticalAlign=middle;spacingLeft=4;spacingRight=4;overflow=hidden;rotatable=0;points=[[0,0.5],[1,0.5]];portConstraint=eastwest;whiteSpace=wrap;html=1;labelBackgroundColor=none;fontColor=#EEEEEE;fontSize=14;" parent="UgSloFG3NdVFuupZQ96s-2" vertex="1">
          <mxGeometry y="120" width="360" height="40" as="geometry" />
        </mxCell>
        <mxCell id="UgSloFG3NdVFuupZQ96s-341" value="&lt;b&gt;deleted: boolean not null default false&lt;/b&gt;" style="text;strokeColor=none;fillColor=none;align=left;verticalAlign=middle;spacingLeft=4;spacingRight=4;overflow=hidden;rotatable=0;points=[[0,0.5],[1,0.5]];portConstraint=eastwest;whiteSpace=wrap;html=1;labelBackgroundColor=none;fontColor=#EEEEEE;fontSize=14;" parent="UgSloFG3NdVFuupZQ96s-2" vertex="1">
          <mxGeometry y="160" width="360" height="40" as="geometry" />
        </mxCell>
        <mxCell id="UgSloFG3NdVFuupZQ96s-347" value="&lt;b&gt;created_by: uuid not null FK -&amp;gt; staff&lt;/b&gt;" style="text;strokeColor=none;fillColor=none;align=left;verticalAlign=middle;spacingLeft=4;spacingRight=4;overflow=hidden;rotatable=0;points=[[0,0.5],[1,0.5]];portConstraint=eastwest;whiteSpace=wrap;html=1;labelBackgroundColor=none;fontColor=#EEEEEE;fontSize=14;" parent="UgSloFG3NdVFuupZQ96s-2" vertex="1">
          <mxGeometry y="200" width="360" height="40" as="geometry" />
        </mxCell>
        <mxCell id="UgSloFG3NdVFuupZQ96s-12" value="&lt;b&gt;discriminator: &lt;/b&gt;text not null" style="text;strokeColor=none;fillColor=none;align=left;verticalAlign=middle;spacingLeft=4;spacingRight=4;overflow=hidden;rotatable=0;points=[[0,0.5],[1,0.5]];portConstraint=eastwest;whiteSpace=wrap;html=1;labelBackgroundColor=none;fontColor=#EEEEEE;fontSize=14;" parent="UgSloFG3NdVFuupZQ96s-2" vertex="1">
          <mxGeometry y="240" width="360" height="40" as="geometry" />
        </mxCell>
        <mxCell id="UgSloFG3NdVFuupZQ96s-14" value="&lt;font style=&quot;font-size: 18px;&quot;&gt;&lt;b&gt;[ dicriminator: TicketProduct ]&lt;br&gt;&lt;/b&gt;&lt;/font&gt;" style="swimlane;fontStyle=0;childLayout=stackLayout;horizontal=1;startSize=40;horizontalStack=0;resizeParent=1;resizeParentMax=0;resizeLast=0;collapsible=1;marginBottom=0;whiteSpace=wrap;html=1;labelBackgroundColor=none;strokeWidth=5;fillColor=#647687;fontColor=#ffffff;strokeColor=#314354;" parent="UgSloFG3NdVFuupZQ96s-2" vertex="1">
          <mxGeometry y="280" width="360" height="120" as="geometry" />
        </mxCell>
        <mxCell id="UgSloFG3NdVFuupZQ96s-30" value="&lt;b&gt;flight_id: &lt;/b&gt;uuid not null FK -&amp;gt; not null" style="text;strokeColor=none;fillColor=none;align=left;verticalAlign=middle;spacingLeft=4;spacingRight=4;overflow=hidden;rotatable=0;points=[[0,0.5],[1,0.5]];portConstraint=eastwest;whiteSpace=wrap;html=1;labelBackgroundColor=none;fontColor=#EEEEEE;fontSize=14;" parent="UgSloFG3NdVFuupZQ96s-14" vertex="1">
          <mxGeometry y="40" width="360" height="40" as="geometry" />
        </mxCell>
        <mxCell id="UgSloFG3NdVFuupZQ96s-20" value="&lt;b&gt;class: uuid not null FK -&amp;gt; rows_classes&lt;/b&gt;" style="text;strokeColor=none;fillColor=none;align=left;verticalAlign=middle;spacingLeft=4;spacingRight=4;overflow=hidden;rotatable=0;points=[[0,0.5],[1,0.5]];portConstraint=eastwest;whiteSpace=wrap;html=1;labelBackgroundColor=none;fontColor=#EEEEEE;fontSize=14;" parent="UgSloFG3NdVFuupZQ96s-14" vertex="1">
          <mxGeometry y="80" width="360" height="40" as="geometry" />
        </mxCell>
        <mxCell id="UgSloFG3NdVFuupZQ96s-101" value="&lt;font style=&quot;font-size: 18px;&quot;&gt;&lt;b&gt;[ purchases ]&lt;br&gt;&lt;/b&gt;&lt;/font&gt;" style="swimlane;fontStyle=0;childLayout=stackLayout;horizontal=1;startSize=40;fillColor=#09555B;horizontalStack=0;resizeParent=1;resizeParentMax=0;resizeLast=0;collapsible=1;marginBottom=0;whiteSpace=wrap;html=1;fontColor=#EEEEEE;strokeColor=#098591;labelBackgroundColor=none;strokeWidth=5;" parent="1" vertex="1">
          <mxGeometry x="4040" y="1200" width="360" height="280" as="geometry" />
        </mxCell>
        <mxCell id="UgSloFG3NdVFuupZQ96s-102" value="&lt;b style=&quot;font-size: 14px;&quot;&gt;id&lt;/b&gt;: uuid PK" style="text;strokeColor=#BAC8D3;fillColor=#09555B;align=left;verticalAlign=middle;spacingLeft=4;spacingRight=4;overflow=hidden;rotatable=0;points=[[0,0.5],[1,0.5]];portConstraint=eastwest;whiteSpace=wrap;html=1;labelBackgroundColor=none;fontColor=#EEEEEE;fontSize=14;" parent="UgSloFG3NdVFuupZQ96s-101" vertex="1">
          <mxGeometry y="40" width="360" height="40" as="geometry" />
        </mxCell>
        <mxCell id="UgSloFG3NdVFuupZQ96s-105" value="&lt;b&gt;created_at: &lt;/b&gt;timestamp not null" style="text;strokeColor=none;fillColor=none;align=left;verticalAlign=middle;spacingLeft=4;spacingRight=4;overflow=hidden;rotatable=0;points=[[0,0.5],[1,0.5]];portConstraint=eastwest;whiteSpace=wrap;html=1;labelBackgroundColor=none;fontColor=#EEEEEE;fontSize=14;" parent="UgSloFG3NdVFuupZQ96s-101" vertex="1">
          <mxGeometry y="80" width="360" height="40" as="geometry" />
        </mxCell>
        <mxCell id="UgSloFG3NdVFuupZQ96s-106" value="&lt;b&gt;user_id: &lt;/b&gt;uuid not null FK -&amp;gt; users" style="text;strokeColor=none;fillColor=none;align=left;verticalAlign=middle;spacingLeft=4;spacingRight=4;overflow=hidden;rotatable=0;points=[[0,0.5],[1,0.5]];portConstraint=eastwest;whiteSpace=wrap;html=1;labelBackgroundColor=none;fontColor=#EEEEEE;fontSize=14;" parent="UgSloFG3NdVFuupZQ96s-101" vertex="1">
          <mxGeometry y="120" width="360" height="40" as="geometry" />
        </mxCell>
        <mxCell id="UgSloFG3NdVFuupZQ96s-107" value="&lt;b&gt;total_price: &lt;/b&gt;money not null" style="text;strokeColor=none;fillColor=none;align=left;verticalAlign=middle;spacingLeft=4;spacingRight=4;overflow=hidden;rotatable=0;points=[[0,0.5],[1,0.5]];portConstraint=eastwest;whiteSpace=wrap;html=1;labelBackgroundColor=none;fontColor=#EEEEEE;fontSize=14;" parent="UgSloFG3NdVFuupZQ96s-101" vertex="1">
          <mxGeometry y="160" width="360" height="40" as="geometry" />
        </mxCell>
        <mxCell id="UgSloFG3NdVFuupZQ96s-310" value="&lt;b&gt;paid_bonuses: int not null&lt;/b&gt;" style="text;strokeColor=none;fillColor=none;align=left;verticalAlign=middle;spacingLeft=4;spacingRight=4;overflow=hidden;rotatable=0;points=[[0,0.5],[1,0.5]];portConstraint=eastwest;whiteSpace=wrap;html=1;labelBackgroundColor=none;fontColor=#EEEEEE;fontSize=14;" parent="UgSloFG3NdVFuupZQ96s-101" vertex="1">
          <mxGeometry y="200" width="360" height="40" as="geometry" />
        </mxCell>
        <mxCell id="UgSloFG3NdVFuupZQ96s-342" value="&lt;b&gt;paid_money: money&amp;nbsp;not null&lt;/b&gt;" style="text;strokeColor=none;fillColor=none;align=left;verticalAlign=middle;spacingLeft=4;spacingRight=4;overflow=hidden;rotatable=0;points=[[0,0.5],[1,0.5]];portConstraint=eastwest;whiteSpace=wrap;html=1;labelBackgroundColor=none;fontColor=#EEEEEE;fontSize=14;" parent="UgSloFG3NdVFuupZQ96s-101" vertex="1">
          <mxGeometry y="240" width="360" height="40" as="geometry" />
        </mxCell>
        <mxCell id="UgSloFG3NdVFuupZQ96s-159" value="&lt;font style=&quot;font-size: 18px;&quot;&gt;&lt;b&gt;rows_classes&lt;br&gt;&lt;/b&gt;&lt;/font&gt;" style="swimlane;fontStyle=0;childLayout=stackLayout;horizontal=1;startSize=40;fillColor=#0050ef;horizontalStack=0;resizeParent=1;resizeParentMax=0;resizeLast=0;collapsible=1;marginBottom=0;whiteSpace=wrap;html=1;fontColor=#ffffff;strokeColor=#001DBC;labelBackgroundColor=none;" parent="1" vertex="1">
          <mxGeometry x="2760" y="1920" width="360" height="320" as="geometry" />
        </mxCell>
        <mxCell id="UgSloFG3NdVFuupZQ96s-160" value="&lt;b style=&quot;font-size: 14px;&quot;&gt;id&lt;/b&gt;: serial PK" style="text;strokeColor=#001DBC;fillColor=#0050ef;align=left;verticalAlign=middle;spacingLeft=4;spacingRight=4;overflow=hidden;rotatable=0;points=[[0,0.5],[1,0.5]];portConstraint=eastwest;whiteSpace=wrap;html=1;labelBackgroundColor=none;fontColor=#ffffff;fontSize=14;" parent="UgSloFG3NdVFuupZQ96s-159" vertex="1">
          <mxGeometry y="40" width="360" height="40" as="geometry" />
        </mxCell>
        <mxCell id="UgSloFG3NdVFuupZQ96s-167" value="&lt;b&gt;title: text not null&lt;/b&gt;" style="text;align=left;verticalAlign=middle;spacingLeft=4;spacingRight=4;overflow=hidden;rotatable=0;points=[[0,0.5],[1,0.5]];portConstraint=eastwest;whiteSpace=wrap;html=1;labelBackgroundColor=none;fontSize=14;" parent="UgSloFG3NdVFuupZQ96s-159" vertex="1">
          <mxGeometry y="80" width="360" height="40" as="geometry" />
        </mxCell>
        <mxCell id="l3O2OO2_3pEZGnwRh9ON-1" value="&lt;b&gt;service_level: smallint not null&lt;/b&gt;" style="text;align=left;verticalAlign=middle;spacingLeft=4;spacingRight=4;overflow=hidden;rotatable=0;points=[[0,0.5],[1,0.5]];portConstraint=eastwest;whiteSpace=wrap;html=1;labelBackgroundColor=none;fontSize=14;" vertex="1" parent="UgSloFG3NdVFuupZQ96s-159">
          <mxGeometry y="120" width="360" height="40" as="geometry" />
        </mxCell>
        <mxCell id="UgSloFG3NdVFuupZQ96s-168" value="&lt;b&gt;rows_count: smallint not null&lt;/b&gt;" style="text;align=left;verticalAlign=middle;spacingLeft=4;spacingRight=4;overflow=hidden;rotatable=0;points=[[0,0.5],[1,0.5]];portConstraint=eastwest;whiteSpace=wrap;html=1;labelBackgroundColor=none;fontSize=14;" parent="UgSloFG3NdVFuupZQ96s-159" vertex="1">
          <mxGeometry y="160" width="360" height="40" as="geometry" />
        </mxCell>
        <mxCell id="UgSloFG3NdVFuupZQ96s-165" value="&lt;b&gt;rows_offset: smallint not null&lt;/b&gt;" style="text;align=left;verticalAlign=middle;spacingLeft=4;spacingRight=4;overflow=hidden;rotatable=0;points=[[0,0.5],[1,0.5]];portConstraint=eastwest;whiteSpace=wrap;html=1;labelBackgroundColor=none;fontSize=14;" parent="UgSloFG3NdVFuupZQ96s-159" vertex="1">
          <mxGeometry y="200" width="360" height="40" as="geometry" />
        </mxCell>
        <mxCell id="UgSloFG3NdVFuupZQ96s-161" value="&lt;b&gt;seats_per_row: smallint not null&lt;/b&gt;" style="text;align=left;verticalAlign=middle;spacingLeft=4;spacingRight=4;overflow=hidden;rotatable=0;points=[[0,0.5],[1,0.5]];portConstraint=eastwest;whiteSpace=wrap;html=1;labelBackgroundColor=none;fontSize=14;" parent="UgSloFG3NdVFuupZQ96s-159" vertex="1">
          <mxGeometry y="240" width="360" height="40" as="geometry" />
        </mxCell>
        <mxCell id="UgSloFG3NdVFuupZQ96s-169" value="&lt;b&gt;&lt;font style=&quot;font-size: 13px;&quot;&gt;airplane_model_id: int not null FK -&amp;gt; airplane_models&lt;/font&gt;&lt;/b&gt;" style="text;align=left;verticalAlign=middle;spacingLeft=4;spacingRight=4;overflow=hidden;rotatable=0;points=[[0,0.5],[1,0.5]];portConstraint=eastwest;whiteSpace=wrap;html=1;labelBackgroundColor=none;fontSize=14;" parent="UgSloFG3NdVFuupZQ96s-159" vertex="1">
          <mxGeometry y="280" width="360" height="40" as="geometry" />
        </mxCell>
        <mxCell id="UgSloFG3NdVFuupZQ96s-180" style="edgeStyle=orthogonalEdgeStyle;shape=connector;rounded=1;orthogonalLoop=1;jettySize=auto;html=1;entryX=0;entryY=0.5;entryDx=0;entryDy=0;labelBackgroundColor=default;strokeColor=#001DBC;strokeWidth=3;align=center;verticalAlign=middle;fontFamily=Helvetica;fontSize=11;fontColor=default;endArrow=classic;fillColor=#0050ef;" parent="1" source="cCel9YPEQvIzqPeBJZ7E-42" target="cCel9YPEQvIzqPeBJZ7E-152" edge="1">
          <mxGeometry relative="1" as="geometry">
            <Array as="points">
              <mxPoint x="2720" y="1540" />
              <mxPoint x="2720" y="1700" />
            </Array>
          </mxGeometry>
        </mxCell>
        <mxCell id="UgSloFG3NdVFuupZQ96s-181" style="edgeStyle=orthogonalEdgeStyle;shape=connector;rounded=1;orthogonalLoop=1;jettySize=auto;html=1;labelBackgroundColor=default;strokeColor=#001DBC;strokeWidth=3;align=center;verticalAlign=middle;fontFamily=Helvetica;fontSize=11;fontColor=default;endArrow=classic;fillColor=#0050ef;" parent="1" source="cCel9YPEQvIzqPeBJZ7E-29" target="cCel9YPEQvIzqPeBJZ7E-152" edge="1">
          <mxGeometry relative="1" as="geometry">
            <Array as="points">
              <mxPoint x="2680" y="1500" />
              <mxPoint x="2680" y="1700" />
            </Array>
          </mxGeometry>
        </mxCell>
        <mxCell id="cCel9YPEQvIzqPeBJZ7E-173" value="&lt;font style=&quot;font-size: 18px;&quot;&gt;&lt;b&gt;airlines&lt;/b&gt;&lt;/font&gt;" style="swimlane;fontStyle=0;childLayout=stackLayout;horizontal=1;startSize=40;fillColor=#0050ef;horizontalStack=0;resizeParent=1;resizeParentMax=0;resizeLast=0;collapsible=1;marginBottom=0;whiteSpace=wrap;html=1;fontColor=#ffffff;strokeColor=#001DBC;labelBackgroundColor=none;" parent="1" vertex="1">
          <mxGeometry x="2080" y="1800" width="360" height="160" as="geometry" />
        </mxCell>
        <mxCell id="cCel9YPEQvIzqPeBJZ7E-174" value="&lt;b style=&quot;font-size: 14px;&quot;&gt;id&lt;/b&gt;: smallserial PK" style="text;strokeColor=#001DBC;fillColor=#0050ef;align=left;verticalAlign=middle;spacingLeft=4;spacingRight=4;overflow=hidden;rotatable=0;points=[[0,0.5],[1,0.5]];portConstraint=eastwest;whiteSpace=wrap;html=1;labelBackgroundColor=none;fontColor=#ffffff;fontSize=14;" parent="cCel9YPEQvIzqPeBJZ7E-173" vertex="1">
          <mxGeometry y="40" width="360" height="40" as="geometry" />
        </mxCell>
        <mxCell id="cCel9YPEQvIzqPeBJZ7E-175" value="&lt;b style=&quot;font-size: 14px;&quot;&gt;name&lt;/b&gt;: text not null" style="text;align=left;verticalAlign=middle;spacingLeft=4;spacingRight=4;overflow=hidden;rotatable=0;points=[[0,0.5],[1,0.5]];portConstraint=eastwest;whiteSpace=wrap;html=1;labelBackgroundColor=none;fontSize=14;" parent="cCel9YPEQvIzqPeBJZ7E-173" vertex="1">
          <mxGeometry y="80" width="360" height="40" as="geometry" />
        </mxCell>
        <mxCell id="cCel9YPEQvIzqPeBJZ7E-176" value="&lt;b&gt;code: &lt;/b&gt;text not null unique" style="text;align=left;verticalAlign=middle;spacingLeft=4;spacingRight=4;overflow=hidden;rotatable=0;points=[[0,0.5],[1,0.5]];portConstraint=eastwest;whiteSpace=wrap;html=1;labelBackgroundColor=none;fontSize=14;" parent="cCel9YPEQvIzqPeBJZ7E-173" vertex="1">
          <mxGeometry y="120" width="360" height="40" as="geometry" />
        </mxCell>
        <mxCell id="UgSloFG3NdVFuupZQ96s-188" style="edgeStyle=orthogonalEdgeStyle;shape=connector;rounded=1;orthogonalLoop=1;jettySize=auto;html=1;entryX=1;entryY=0.5;entryDx=0;entryDy=0;labelBackgroundColor=default;strokeColor=#001DBC;strokeWidth=3;align=center;verticalAlign=middle;fontFamily=Helvetica;fontSize=11;fontColor=default;endArrow=classic;fillColor=#0050ef;" parent="1" source="cCel9YPEQvIzqPeBJZ7E-27" target="cCel9YPEQvIzqPeBJZ7E-54" edge="1">
          <mxGeometry relative="1" as="geometry">
            <Array as="points">
              <mxPoint x="2520" y="1340" />
              <mxPoint x="2520" y="1540" />
            </Array>
          </mxGeometry>
        </mxCell>
        <mxCell id="UgSloFG3NdVFuupZQ96s-189" style="edgeStyle=orthogonalEdgeStyle;shape=connector;rounded=1;orthogonalLoop=1;jettySize=auto;html=1;labelBackgroundColor=default;strokeColor=#001DBC;strokeWidth=3;align=center;verticalAlign=middle;fontFamily=Helvetica;fontSize=11;fontColor=default;endArrow=classic;fillColor=#0050ef;" parent="1" source="cCel9YPEQvIzqPeBJZ7E-28" target="cCel9YPEQvIzqPeBJZ7E-54" edge="1">
          <mxGeometry relative="1" as="geometry">
            <Array as="points">
              <mxPoint x="2560" y="1380" />
              <mxPoint x="2560" y="1540" />
            </Array>
          </mxGeometry>
        </mxCell>
        <mxCell id="UgSloFG3NdVFuupZQ96s-191" style="edgeStyle=orthogonalEdgeStyle;shape=connector;rounded=1;orthogonalLoop=1;jettySize=auto;html=1;labelBackgroundColor=default;strokeColor=#001DBC;strokeWidth=4;align=center;verticalAlign=middle;fontFamily=Helvetica;fontSize=11;fontColor=default;endArrow=classic;fillColor=#0050ef;" parent="1" source="cCel9YPEQvIzqPeBJZ7E-155" target="cCel9YPEQvIzqPeBJZ7E-54" edge="1">
          <mxGeometry relative="1" as="geometry">
            <Array as="points">
              <mxPoint x="2600" y="1820" />
              <mxPoint x="2600" y="1540" />
            </Array>
          </mxGeometry>
        </mxCell>
        <mxCell id="UgSloFG3NdVFuupZQ96s-193" style="edgeStyle=orthogonalEdgeStyle;shape=connector;rounded=1;orthogonalLoop=1;jettySize=auto;html=1;entryX=0;entryY=0.25;entryDx=0;entryDy=0;labelBackgroundColor=default;strokeColor=#001DBC;strokeWidth=3;align=center;verticalAlign=middle;fontFamily=Helvetica;fontSize=11;fontColor=default;endArrow=classic;fillColor=#0050ef;" parent="1" source="cCel9YPEQvIzqPeBJZ7E-181" target="cCel9YPEQvIzqPeBJZ7E-53" edge="1">
          <mxGeometry relative="1" as="geometry">
            <Array as="points">
              <mxPoint x="2000" y="1380" />
              <mxPoint x="2000" y="1540" />
            </Array>
          </mxGeometry>
        </mxCell>
        <mxCell id="UgSloFG3NdVFuupZQ96s-194" style="edgeStyle=orthogonalEdgeStyle;shape=connector;rounded=1;orthogonalLoop=1;jettySize=auto;html=1;entryX=1;entryY=0.5;entryDx=0;entryDy=0;labelBackgroundColor=default;strokeColor=#001DBC;strokeWidth=3;align=center;verticalAlign=middle;fontFamily=Helvetica;fontSize=11;fontColor=default;endArrow=classic;fillColor=#0050ef;" parent="1" source="UgSloFG3NdVFuupZQ96s-169" target="cCel9YPEQvIzqPeBJZ7E-168" edge="1">
          <mxGeometry relative="1" as="geometry" />
        </mxCell>
        <mxCell id="UgSloFG3NdVFuupZQ96s-195" style="edgeStyle=orthogonalEdgeStyle;shape=connector;rounded=1;orthogonalLoop=1;jettySize=auto;html=1;entryX=0;entryY=0.5;entryDx=0;entryDy=0;labelBackgroundColor=default;strokeColor=#001DBC;strokeWidth=3;align=center;verticalAlign=middle;fontFamily=Helvetica;fontSize=11;fontColor=default;endArrow=classic;fillColor=#0050ef;" parent="1" source="cCel9YPEQvIzqPeBJZ7E-166" target="cCel9YPEQvIzqPeBJZ7E-174" edge="1">
          <mxGeometry relative="1" as="geometry">
            <Array as="points">
              <mxPoint x="1960" y="1340" />
              <mxPoint x="1960" y="1860" />
            </Array>
          </mxGeometry>
        </mxCell>
        <mxCell id="UgSloFG3NdVFuupZQ96s-196" style="edgeStyle=orthogonalEdgeStyle;shape=connector;rounded=1;orthogonalLoop=1;jettySize=auto;html=1;entryX=0;entryY=0.5;entryDx=0;entryDy=0;labelBackgroundColor=default;strokeColor=#001DBC;strokeWidth=3;align=center;verticalAlign=middle;fontFamily=Helvetica;fontSize=11;fontColor=default;endArrow=classic;fillColor=#0050ef;" parent="1" source="cCel9YPEQvIzqPeBJZ7E-165" target="cCel9YPEQvIzqPeBJZ7E-168" edge="1">
          <mxGeometry relative="1" as="geometry">
            <Array as="points">
              <mxPoint x="1920" y="1300" />
              <mxPoint x="1920" y="2100" />
            </Array>
          </mxGeometry>
        </mxCell>
        <mxCell id="UgSloFG3NdVFuupZQ96s-197" style="edgeStyle=orthogonalEdgeStyle;shape=connector;orthogonalLoop=1;jettySize=auto;html=1;entryX=1;entryY=0.5;entryDx=0;entryDy=0;labelBackgroundColor=default;strokeColor=#B20000;strokeWidth=8;align=center;verticalAlign=middle;fontFamily=Helvetica;fontSize=11;fontColor=default;endArrow=classic;fillColor=#e51400;curved=1;dashed=1;" parent="1" source="UgSloFG3NdVFuupZQ96s-30" target="cCel9YPEQvIzqPeBJZ7E-26" edge="1">
          <mxGeometry relative="1" as="geometry" />
        </mxCell>
        <mxCell id="UgSloFG3NdVFuupZQ96s-198" style="edgeStyle=orthogonalEdgeStyle;shape=connector;curved=1;rounded=1;orthogonalLoop=1;jettySize=auto;html=1;entryX=1;entryY=0.5;entryDx=0;entryDy=0;dashed=1;labelBackgroundColor=default;strokeColor=#B20000;strokeWidth=8;align=center;verticalAlign=middle;fontFamily=Helvetica;fontSize=11;fontColor=default;endArrow=classic;fillColor=#e51400;" parent="1" source="UgSloFG3NdVFuupZQ96s-20" target="UgSloFG3NdVFuupZQ96s-160" edge="1">
          <mxGeometry relative="1" as="geometry" />
        </mxCell>
        <mxCell id="UgSloFG3NdVFuupZQ96s-250" style="edgeStyle=orthogonalEdgeStyle;shape=connector;rounded=1;orthogonalLoop=1;jettySize=auto;html=1;labelBackgroundColor=default;strokeColor=#098591;strokeWidth=3;align=center;verticalAlign=middle;fontFamily=Helvetica;fontSize=11;fontColor=default;endArrow=classic;exitX=1;exitY=0.5;exitDx=0;exitDy=0;" parent="1" source="UgSloFG3NdVFuupZQ96s-85" target="UgSloFG3NdVFuupZQ96s-102" edge="1">
          <mxGeometry relative="1" as="geometry">
            <Array as="points">
              <mxPoint x="4480" y="1700" />
              <mxPoint x="4480" y="1260" />
            </Array>
          </mxGeometry>
        </mxCell>
        <mxCell id="UgSloFG3NdVFuupZQ96s-251" value="&lt;font style=&quot;font-size: 18px;&quot;&gt;&lt;b&gt;[ rewards ]&lt;br&gt;&lt;/b&gt;&lt;/font&gt;" style="swimlane;fontStyle=0;childLayout=stackLayout;horizontal=1;startSize=40;fillColor=#09555B;horizontalStack=0;resizeParent=1;resizeParentMax=0;resizeLast=0;collapsible=1;marginBottom=0;whiteSpace=wrap;html=1;fontColor=#EEEEEE;strokeColor=#098591;labelBackgroundColor=none;strokeWidth=5;" parent="1" vertex="1">
          <mxGeometry x="3520" y="1360" width="360" height="320" as="geometry" />
        </mxCell>
        <mxCell id="UgSloFG3NdVFuupZQ96s-252" value="&lt;b style=&quot;font-size: 14px;&quot;&gt;id&lt;/b&gt;: uuid PK" style="text;strokeColor=#BAC8D3;fillColor=#09555B;align=left;verticalAlign=middle;spacingLeft=4;spacingRight=4;overflow=hidden;rotatable=0;points=[[0,0.5],[1,0.5]];portConstraint=eastwest;whiteSpace=wrap;html=1;labelBackgroundColor=none;fontColor=#EEEEEE;fontSize=14;" parent="UgSloFG3NdVFuupZQ96s-251" vertex="1">
          <mxGeometry y="40" width="360" height="40" as="geometry" />
        </mxCell>
        <mxCell id="UgSloFG3NdVFuupZQ96s-286" value="&lt;b&gt;created_at: &lt;/b&gt;timestamp not null" style="text;strokeColor=none;fillColor=none;align=left;verticalAlign=middle;spacingLeft=4;spacingRight=4;overflow=hidden;rotatable=0;points=[[0,0.5],[1,0.5]];portConstraint=eastwest;whiteSpace=wrap;html=1;labelBackgroundColor=none;fontColor=#EEEEEE;fontSize=14;" parent="UgSloFG3NdVFuupZQ96s-251" vertex="1">
          <mxGeometry y="80" width="360" height="40" as="geometry" />
        </mxCell>
        <mxCell id="UgSloFG3NdVFuupZQ96s-253" value="&lt;b&gt;starts_at: &lt;/b&gt;timestamp not null" style="text;strokeColor=none;fillColor=none;align=left;verticalAlign=middle;spacingLeft=4;spacingRight=4;overflow=hidden;rotatable=0;points=[[0,0.5],[1,0.5]];portConstraint=eastwest;whiteSpace=wrap;html=1;labelBackgroundColor=none;fontColor=#EEEEEE;fontSize=14;" parent="UgSloFG3NdVFuupZQ96s-251" vertex="1">
          <mxGeometry y="120" width="360" height="40" as="geometry" />
        </mxCell>
        <mxCell id="UgSloFG3NdVFuupZQ96s-254" value="&lt;b&gt;ends_at: &lt;/b&gt;timestamp null" style="text;strokeColor=none;fillColor=none;align=left;verticalAlign=middle;spacingLeft=4;spacingRight=4;overflow=hidden;rotatable=0;points=[[0,0.5],[1,0.5]];portConstraint=eastwest;whiteSpace=wrap;html=1;labelBackgroundColor=none;fontColor=#EEEEEE;fontSize=14;" parent="UgSloFG3NdVFuupZQ96s-251" vertex="1">
          <mxGeometry y="160" width="360" height="40" as="geometry" />
        </mxCell>
        <mxCell id="UgSloFG3NdVFuupZQ96s-255" value="&lt;b&gt;discriminator: text not null&lt;/b&gt;" style="text;strokeColor=none;fillColor=none;align=left;verticalAlign=middle;spacingLeft=4;spacingRight=4;overflow=hidden;rotatable=0;points=[[0,0.5],[1,0.5]];portConstraint=eastwest;whiteSpace=wrap;html=1;labelBackgroundColor=none;fontColor=#EEEEEE;fontSize=14;" parent="UgSloFG3NdVFuupZQ96s-251" vertex="1">
          <mxGeometry y="200" width="360" height="40" as="geometry" />
        </mxCell>
        <mxCell id="UgSloFG3NdVFuupZQ96s-256" value="&lt;font style=&quot;font-size: 18px;&quot;&gt;&lt;b&gt;[ dicriminator: PercentBonusPoints ]&lt;br&gt;&lt;/b&gt;&lt;/font&gt;" style="swimlane;fontStyle=0;childLayout=stackLayout;horizontal=1;startSize=40;horizontalStack=0;resizeParent=1;resizeParentMax=0;resizeLast=0;collapsible=1;marginBottom=0;whiteSpace=wrap;html=1;labelBackgroundColor=none;strokeWidth=5;fillColor=#647687;fontColor=#ffffff;strokeColor=#314354;" parent="UgSloFG3NdVFuupZQ96s-251" vertex="1">
          <mxGeometry y="240" width="360" height="80" as="geometry" />
        </mxCell>
        <mxCell id="UgSloFG3NdVFuupZQ96s-257" value="&lt;b&gt;percent_value: &lt;/b&gt;real not null" style="text;strokeColor=none;fillColor=none;align=left;verticalAlign=middle;spacingLeft=4;spacingRight=4;overflow=hidden;rotatable=0;points=[[0,0.5],[1,0.5]];portConstraint=eastwest;whiteSpace=wrap;html=1;labelBackgroundColor=none;fontColor=#EEEEEE;fontSize=14;" parent="UgSloFG3NdVFuupZQ96s-256" vertex="1">
          <mxGeometry y="40" width="360" height="40" as="geometry" />
        </mxCell>
        <mxCell id="UgSloFG3NdVFuupZQ96s-258" value="&lt;font style=&quot;font-size: 18px;&quot;&gt;&lt;b&gt;[ products_rewards ]&lt;br&gt;&lt;/b&gt;&lt;/font&gt;" style="swimlane;fontStyle=0;childLayout=stackLayout;horizontal=1;startSize=40;fillColor=#09555B;horizontalStack=0;resizeParent=1;resizeParentMax=0;resizeLast=0;collapsible=1;marginBottom=0;whiteSpace=wrap;html=1;fontColor=#EEEEEE;strokeColor=#098591;labelBackgroundColor=none;strokeWidth=5;" parent="1" vertex="1">
          <mxGeometry x="3520" y="1200" width="360" height="120" as="geometry" />
        </mxCell>
        <mxCell id="UgSloFG3NdVFuupZQ96s-259" value="&lt;b&gt;reward_id: uuid PK FK -&amp;gt; reward&lt;/b&gt;" style="text;strokeColor=#BAC8D3;fillColor=#09555B;align=left;verticalAlign=middle;spacingLeft=4;spacingRight=4;overflow=hidden;rotatable=0;points=[[0,0.5],[1,0.5]];portConstraint=eastwest;whiteSpace=wrap;html=1;labelBackgroundColor=none;fontColor=#EEEEEE;fontSize=14;" parent="UgSloFG3NdVFuupZQ96s-258" vertex="1">
          <mxGeometry y="40" width="360" height="40" as="geometry" />
        </mxCell>
        <mxCell id="UgSloFG3NdVFuupZQ96s-265" value="&lt;b&gt;product_id: uuid PK FK -&amp;gt; products&lt;/b&gt;" style="text;strokeColor=#BAC8D3;fillColor=#09555B;align=left;verticalAlign=middle;spacingLeft=4;spacingRight=4;overflow=hidden;rotatable=0;points=[[0,0.5],[1,0.5]];portConstraint=eastwest;whiteSpace=wrap;html=1;labelBackgroundColor=none;fontColor=#EEEEEE;fontSize=14;" parent="UgSloFG3NdVFuupZQ96s-258" vertex="1">
          <mxGeometry y="80" width="360" height="40" as="geometry" />
        </mxCell>
        <mxCell id="UgSloFG3NdVFuupZQ96s-268" style="edgeStyle=orthogonalEdgeStyle;shape=connector;rounded=1;orthogonalLoop=1;jettySize=auto;html=1;labelBackgroundColor=default;strokeColor=#098591;strokeWidth=3;align=center;verticalAlign=middle;fontFamily=Helvetica;fontSize=11;fontColor=default;endArrow=classic;" parent="1" source="UgSloFG3NdVFuupZQ96s-265" target="UgSloFG3NdVFuupZQ96s-3" edge="1">
          <mxGeometry relative="1" as="geometry">
            <Array as="points">
              <mxPoint x="3480" y="1300" />
              <mxPoint x="3480" y="1820" />
            </Array>
          </mxGeometry>
        </mxCell>
        <mxCell id="UgSloFG3NdVFuupZQ96s-319" style="edgeStyle=orthogonalEdgeStyle;shape=connector;rounded=1;orthogonalLoop=1;jettySize=auto;html=1;labelBackgroundColor=default;strokeColor=#098591;strokeWidth=3;align=center;verticalAlign=middle;fontFamily=Helvetica;fontSize=11;fontColor=default;endArrow=classic;" parent="1" source="UgSloFG3NdVFuupZQ96s-259" target="UgSloFG3NdVFuupZQ96s-252" edge="1">
          <mxGeometry relative="1" as="geometry">
            <Array as="points">
              <mxPoint x="3920" y="1260" />
              <mxPoint x="3920" y="1420" />
            </Array>
          </mxGeometry>
        </mxCell>
        <mxCell id="UgSloFG3NdVFuupZQ96s-320" style="edgeStyle=orthogonalEdgeStyle;shape=connector;rounded=1;orthogonalLoop=1;jettySize=auto;html=1;labelBackgroundColor=default;strokeColor=#098591;strokeWidth=3;align=center;verticalAlign=middle;fontFamily=Helvetica;fontSize=11;fontColor=default;endArrow=classic;" parent="1" source="UgSloFG3NdVFuupZQ96s-67" target="UgSloFG3NdVFuupZQ96s-3" edge="1">
          <mxGeometry relative="1" as="geometry" />
        </mxCell>
        <mxCell id="UgSloFG3NdVFuupZQ96s-322" style="edgeStyle=orthogonalEdgeStyle;shape=connector;curved=1;rounded=1;orthogonalLoop=1;jettySize=auto;html=1;dashed=1;labelBackgroundColor=default;strokeColor=#B20000;strokeWidth=8;align=center;verticalAlign=middle;fontFamily=Helvetica;fontSize=11;fontColor=default;endArrow=classic;fillColor=#e51400;" parent="1" source="UgSloFG3NdVFuupZQ96s-106" target="Wbdcqwvr1IbIfebZv92Z-10" edge="1">
          <mxGeometry relative="1" as="geometry" />
        </mxCell>
        <mxCell id="UgSloFG3NdVFuupZQ96s-324" value="&lt;font style=&quot;font-size: 18px;&quot;&gt;&lt;b&gt;[ bonus_changes ]&lt;br&gt;&lt;/b&gt;&lt;/font&gt;" style="swimlane;fontStyle=0;childLayout=stackLayout;horizontal=1;startSize=40;fillColor=#6a00ff;horizontalStack=0;resizeParent=1;resizeParentMax=0;resizeLast=0;collapsible=1;marginBottom=0;whiteSpace=wrap;html=1;fontColor=#ffffff;strokeColor=#3700CC;labelBackgroundColor=none;strokeWidth=5;" parent="1" vertex="1">
          <mxGeometry x="4040" y="320" width="360" height="240" as="geometry" />
        </mxCell>
        <mxCell id="UgSloFG3NdVFuupZQ96s-325" value="&lt;b style=&quot;font-size: 14px;&quot;&gt;id&lt;/b&gt;: uuid PK" style="text;strokeColor=#3700CC;fillColor=#6a00ff;align=left;verticalAlign=middle;spacingLeft=4;spacingRight=4;overflow=hidden;rotatable=0;points=[[0,0.5],[1,0.5]];portConstraint=eastwest;whiteSpace=wrap;html=1;labelBackgroundColor=none;fontColor=#ffffff;fontSize=14;" parent="UgSloFG3NdVFuupZQ96s-324" vertex="1">
          <mxGeometry y="40" width="360" height="40" as="geometry" />
        </mxCell>
        <mxCell id="UgSloFG3NdVFuupZQ96s-326" value="&lt;b&gt;changed_at: timestamp not null&lt;/b&gt;" style="text;strokeColor=none;fillColor=none;align=left;verticalAlign=middle;spacingLeft=4;spacingRight=4;overflow=hidden;rotatable=0;points=[[0,0.5],[1,0.5]];portConstraint=eastwest;whiteSpace=wrap;html=1;labelBackgroundColor=none;fontColor=#EEEEEE;fontSize=14;" parent="UgSloFG3NdVFuupZQ96s-324" vertex="1">
          <mxGeometry y="80" width="360" height="40" as="geometry" />
        </mxCell>
        <mxCell id="UgSloFG3NdVFuupZQ96s-327" value="&lt;b&gt;value: int not null&lt;/b&gt;" style="text;strokeColor=none;fillColor=none;align=left;verticalAlign=middle;spacingLeft=4;spacingRight=4;overflow=hidden;rotatable=0;points=[[0,0.5],[1,0.5]];portConstraint=eastwest;whiteSpace=wrap;html=1;labelBackgroundColor=none;fontColor=#EEEEEE;fontSize=14;" parent="UgSloFG3NdVFuupZQ96s-324" vertex="1">
          <mxGeometry y="120" width="360" height="40" as="geometry" />
        </mxCell>
        <mxCell id="UgSloFG3NdVFuupZQ96s-328" value="&lt;b&gt;purchase_id: uuid not null FK purchases&lt;/b&gt;" style="text;strokeColor=none;fillColor=none;align=left;verticalAlign=middle;spacingLeft=4;spacingRight=4;overflow=hidden;rotatable=0;points=[[0,0.5],[1,0.5]];portConstraint=eastwest;whiteSpace=wrap;html=1;labelBackgroundColor=none;fontColor=#EEEEEE;fontSize=14;" parent="UgSloFG3NdVFuupZQ96s-324" vertex="1">
          <mxGeometry y="160" width="360" height="40" as="geometry" />
        </mxCell>
        <mxCell id="UgSloFG3NdVFuupZQ96s-329" value="&lt;b&gt;user_id: uuid not null FK users&lt;/b&gt;" style="text;strokeColor=none;fillColor=none;align=left;verticalAlign=middle;spacingLeft=4;spacingRight=4;overflow=hidden;rotatable=0;points=[[0,0.5],[1,0.5]];portConstraint=eastwest;whiteSpace=wrap;html=1;labelBackgroundColor=none;fontColor=#EEEEEE;fontSize=14;" parent="UgSloFG3NdVFuupZQ96s-324" vertex="1">
          <mxGeometry y="200" width="360" height="40" as="geometry" />
        </mxCell>
        <mxCell id="UgSloFG3NdVFuupZQ96s-332" value="&lt;font style=&quot;font-size: 18px;&quot;&gt;&lt;b&gt;[ price_changes ]&lt;br&gt;&lt;/b&gt;&lt;/font&gt;" style="swimlane;fontStyle=0;childLayout=stackLayout;horizontal=1;startSize=40;fillColor=#6a00ff;horizontalStack=0;resizeParent=1;resizeParentMax=0;resizeLast=0;collapsible=1;marginBottom=0;whiteSpace=wrap;html=1;fontColor=#ffffff;strokeColor=#3700CC;labelBackgroundColor=none;strokeWidth=5;" parent="1" vertex="1">
          <mxGeometry x="3520" y="320" width="360" height="240" as="geometry" />
        </mxCell>
        <mxCell id="UgSloFG3NdVFuupZQ96s-333" value="&lt;b style=&quot;font-size: 14px;&quot;&gt;id&lt;/b&gt;: uuid PK" style="text;strokeColor=#3700CC;fillColor=#6a00ff;align=left;verticalAlign=middle;spacingLeft=4;spacingRight=4;overflow=hidden;rotatable=0;points=[[0,0.5],[1,0.5]];portConstraint=eastwest;whiteSpace=wrap;html=1;labelBackgroundColor=none;fontColor=#ffffff;fontSize=14;" parent="UgSloFG3NdVFuupZQ96s-332" vertex="1">
          <mxGeometry y="40" width="360" height="40" as="geometry" />
        </mxCell>
        <mxCell id="UgSloFG3NdVFuupZQ96s-334" value="&lt;b&gt;changed_at: timestamp not null&lt;/b&gt;" style="text;strokeColor=none;fillColor=none;align=left;verticalAlign=middle;spacingLeft=4;spacingRight=4;overflow=hidden;rotatable=0;points=[[0,0.5],[1,0.5]];portConstraint=eastwest;whiteSpace=wrap;html=1;labelBackgroundColor=none;fontColor=#EEEEEE;fontSize=14;" parent="UgSloFG3NdVFuupZQ96s-332" vertex="1">
          <mxGeometry y="80" width="360" height="40" as="geometry" />
        </mxCell>
        <mxCell id="UgSloFG3NdVFuupZQ96s-335" value="&lt;b&gt;value: int not null&lt;/b&gt;" style="text;strokeColor=none;fillColor=none;align=left;verticalAlign=middle;spacingLeft=4;spacingRight=4;overflow=hidden;rotatable=0;points=[[0,0.5],[1,0.5]];portConstraint=eastwest;whiteSpace=wrap;html=1;labelBackgroundColor=none;fontColor=#EEEEEE;fontSize=14;" parent="UgSloFG3NdVFuupZQ96s-332" vertex="1">
          <mxGeometry y="120" width="360" height="40" as="geometry" />
        </mxCell>
        <mxCell id="UgSloFG3NdVFuupZQ96s-336" value="&lt;b&gt;staff_id: uuid not null FK -&amp;gt; staff&lt;/b&gt;" style="text;strokeColor=none;fillColor=none;align=left;verticalAlign=middle;spacingLeft=4;spacingRight=4;overflow=hidden;rotatable=0;points=[[0,0.5],[1,0.5]];portConstraint=eastwest;whiteSpace=wrap;html=1;labelBackgroundColor=none;fontColor=#EEEEEE;fontSize=14;" parent="UgSloFG3NdVFuupZQ96s-332" vertex="1">
          <mxGeometry y="160" width="360" height="40" as="geometry" />
        </mxCell>
        <mxCell id="UgSloFG3NdVFuupZQ96s-340" value="&lt;b&gt;product_id: uuid not null FK -&amp;gt; products&lt;/b&gt;" style="text;strokeColor=none;fillColor=none;align=left;verticalAlign=middle;spacingLeft=4;spacingRight=4;overflow=hidden;rotatable=0;points=[[0,0.5],[1,0.5]];portConstraint=eastwest;whiteSpace=wrap;html=1;labelBackgroundColor=none;fontColor=#EEEEEE;fontSize=14;" parent="UgSloFG3NdVFuupZQ96s-332" vertex="1">
          <mxGeometry y="200" width="360" height="40" as="geometry" />
        </mxCell>
        <mxCell id="UgSloFG3NdVFuupZQ96s-343" style="edgeStyle=orthogonalEdgeStyle;shape=connector;curved=1;rounded=1;orthogonalLoop=1;jettySize=auto;html=1;dashed=1;labelBackgroundColor=default;strokeColor=#B20000;strokeWidth=8;align=center;verticalAlign=middle;fontFamily=Helvetica;fontSize=11;fontColor=default;endArrow=classic;fillColor=#e51400;" parent="1" source="UgSloFG3NdVFuupZQ96s-340" target="UgSloFG3NdVFuupZQ96s-3" edge="1">
          <mxGeometry relative="1" as="geometry">
            <Array as="points">
              <mxPoint x="3410" y="540" />
              <mxPoint x="3410" y="1820" />
            </Array>
          </mxGeometry>
        </mxCell>
        <mxCell id="UgSloFG3NdVFuupZQ96s-344" style="edgeStyle=orthogonalEdgeStyle;shape=connector;curved=1;rounded=1;orthogonalLoop=1;jettySize=auto;html=1;dashed=1;labelBackgroundColor=default;strokeColor=#B20000;strokeWidth=8;align=center;verticalAlign=middle;fontFamily=Helvetica;fontSize=11;fontColor=default;endArrow=classic;fillColor=#e51400;" parent="1" source="UgSloFG3NdVFuupZQ96s-336" target="Wbdcqwvr1IbIfebZv92Z-93" edge="1">
          <mxGeometry relative="1" as="geometry">
            <Array as="points">
              <mxPoint x="3240" y="500" />
              <mxPoint x="3240" y="370" />
            </Array>
          </mxGeometry>
        </mxCell>
        <mxCell id="UgSloFG3NdVFuupZQ96s-345" style="edgeStyle=orthogonalEdgeStyle;shape=connector;curved=1;rounded=1;orthogonalLoop=1;jettySize=auto;html=1;entryX=0;entryY=0.5;entryDx=0;entryDy=0;dashed=1;labelBackgroundColor=default;strokeColor=#B20000;strokeWidth=8;align=center;verticalAlign=middle;fontFamily=Helvetica;fontSize=11;fontColor=default;endArrow=classic;fillColor=#e51400;" parent="1" source="UgSloFG3NdVFuupZQ96s-328" target="UgSloFG3NdVFuupZQ96s-102" edge="1">
          <mxGeometry relative="1" as="geometry">
            <Array as="points">
              <mxPoint x="3970" y="500" />
              <mxPoint x="3970" y="1260" />
            </Array>
          </mxGeometry>
        </mxCell>
        <mxCell id="UgSloFG3NdVFuupZQ96s-346" style="edgeStyle=orthogonalEdgeStyle;shape=connector;curved=1;rounded=1;orthogonalLoop=1;jettySize=auto;html=1;dashed=1;labelBackgroundColor=default;strokeColor=#B20000;strokeWidth=8;align=center;verticalAlign=middle;fontFamily=Helvetica;fontSize=11;fontColor=default;endArrow=classic;fillColor=#e51400;" parent="1" source="UgSloFG3NdVFuupZQ96s-329" target="Wbdcqwvr1IbIfebZv92Z-10" edge="1">
          <mxGeometry relative="1" as="geometry" />
        </mxCell>
        <mxCell id="UgSloFG3NdVFuupZQ96s-348" style="edgeStyle=orthogonalEdgeStyle;shape=connector;curved=1;rounded=1;orthogonalLoop=1;jettySize=auto;html=1;dashed=1;labelBackgroundColor=default;strokeColor=#B20000;strokeWidth=8;align=center;verticalAlign=middle;fontFamily=Helvetica;fontSize=11;fontColor=default;endArrow=classic;fillColor=#e51400;exitX=0;exitY=0.5;exitDx=0;exitDy=0;" parent="1" source="UgSloFG3NdVFuupZQ96s-347" target="Wbdcqwvr1IbIfebZv92Z-93" edge="1">
          <mxGeometry relative="1" as="geometry">
            <Array as="points">
              <mxPoint x="3520" y="1960" />
              <mxPoint x="3350" y="1960" />
              <mxPoint x="3350" y="370" />
            </Array>
          </mxGeometry>
        </mxCell>
        <mxCell id="zzozTdy8GIohRKjn2OjZ-2" style="edgeStyle=orthogonalEdgeStyle;shape=connector;rounded=1;orthogonalLoop=1;jettySize=auto;html=1;labelBackgroundColor=default;strokeColor=#001DBC;strokeWidth=3;align=center;verticalAlign=middle;fontFamily=Helvetica;fontSize=11;fontColor=default;endArrow=classic;fillColor=#0050ef;" parent="1" source="cCel9YPEQvIzqPeBJZ7E-43" target="cCel9YPEQvIzqPeBJZ7E-163" edge="1">
          <mxGeometry relative="1" as="geometry">
            <Array as="points">
              <mxPoint x="2520" y="1300" />
              <mxPoint x="2520" y="1260" />
            </Array>
          </mxGeometry>
        </mxCell>
        <mxCell id="l3O2OO2_3pEZGnwRh9ON-4" value="&lt;font style=&quot;font-size: 18px;&quot;&gt;&lt;b&gt;flights&lt;/b&gt;&lt;/font&gt;" style="swimlane;fontStyle=0;childLayout=stackLayout;horizontal=1;startSize=40;fillColor=#0050ef;horizontalStack=0;resizeParent=1;resizeParentMax=0;resizeLast=0;collapsible=1;marginBottom=0;whiteSpace=wrap;html=1;fontColor=#ffffff;strokeColor=#001DBC;labelBackgroundColor=none;strokeWidth=5;" vertex="1" parent="1">
          <mxGeometry x="7840" y="1120" width="360" height="360" as="geometry" />
        </mxCell>
        <mxCell id="l3O2OO2_3pEZGnwRh9ON-5" value="&lt;b style=&quot;font-size: 14px;&quot;&gt;id&lt;/b&gt;: uuid PK" style="text;align=left;verticalAlign=middle;spacingLeft=4;spacingRight=4;overflow=hidden;rotatable=0;points=[[0,0.5],[1,0.5]];portConstraint=eastwest;whiteSpace=wrap;html=1;labelBackgroundColor=none;fontSize=14;fillColor=#0050ef;strokeColor=#001DBC;fontColor=#ffffff;" vertex="1" parent="l3O2OO2_3pEZGnwRh9ON-4">
          <mxGeometry y="40" width="360" height="40" as="geometry" />
        </mxCell>
        <mxCell id="l3O2OO2_3pEZGnwRh9ON-6" value="&lt;b style=&quot;font-size: 14px;&quot;&gt;airplane_id&lt;/b&gt;: int not null FK -&amp;gt; airplanes" style="text;align=left;verticalAlign=middle;spacingLeft=4;spacingRight=4;overflow=hidden;rotatable=0;points=[[0,0.5],[1,0.5]];portConstraint=eastwest;whiteSpace=wrap;html=1;labelBackgroundColor=none;fontSize=14;" vertex="1" parent="l3O2OO2_3pEZGnwRh9ON-4">
          <mxGeometry y="80" width="360" height="40" as="geometry" />
        </mxCell>
        <mxCell id="l3O2OO2_3pEZGnwRh9ON-7" value="&lt;b style=&quot;font-size: 14px;&quot;&gt;departure_airport_id&lt;/b&gt;: int not null FK -&amp;gt; airports" style="text;align=left;verticalAlign=middle;spacingLeft=4;spacingRight=4;overflow=hidden;rotatable=0;points=[[0,0.5],[1,0.5]];portConstraint=eastwest;whiteSpace=wrap;html=1;labelBackgroundColor=none;fontSize=14;" vertex="1" parent="l3O2OO2_3pEZGnwRh9ON-4">
          <mxGeometry y="120" width="360" height="40" as="geometry" />
        </mxCell>
        <mxCell id="l3O2OO2_3pEZGnwRh9ON-8" value="&lt;b style=&quot;font-size: 14px;&quot;&gt;arrival_airport_id&lt;/b&gt;: serial not null FK -&amp;gt; airports" style="text;align=left;verticalAlign=middle;spacingLeft=4;spacingRight=4;overflow=hidden;rotatable=0;points=[[0,0.5],[1,0.5]];portConstraint=eastwest;whiteSpace=wrap;html=1;labelBackgroundColor=none;fontSize=14;" vertex="1" parent="l3O2OO2_3pEZGnwRh9ON-4">
          <mxGeometry y="160" width="360" height="40" as="geometry" />
        </mxCell>
        <mxCell id="l3O2OO2_3pEZGnwRh9ON-9" value="&lt;b style=&quot;font-size: 14px;&quot;&gt;departure_date_time_utc&lt;/b&gt;: timestamp not null" style="text;align=left;verticalAlign=middle;spacingLeft=4;spacingRight=4;overflow=hidden;rotatable=0;points=[[0,0.5],[1,0.5]];portConstraint=eastwest;whiteSpace=wrap;html=1;labelBackgroundColor=none;fontSize=14;" vertex="1" parent="l3O2OO2_3pEZGnwRh9ON-4">
          <mxGeometry y="200" width="360" height="40" as="geometry" />
        </mxCell>
        <mxCell id="l3O2OO2_3pEZGnwRh9ON-10" value="&lt;b style=&quot;font-size: 14px;&quot;&gt;arrival_date_time_utc&lt;/b&gt;: timestamp not null" style="text;align=left;verticalAlign=middle;spacingLeft=4;spacingRight=4;overflow=hidden;rotatable=0;points=[[0,0.5],[1,0.5]];portConstraint=eastwest;whiteSpace=wrap;html=1;labelBackgroundColor=none;fontSize=14;" vertex="1" parent="l3O2OO2_3pEZGnwRh9ON-4">
          <mxGeometry y="240" width="360" height="40" as="geometry" />
        </mxCell>
        <mxCell id="l3O2OO2_3pEZGnwRh9ON-11" value="&lt;b style=&quot;font-size: 14px;&quot;&gt;departure_gate_id&lt;/b&gt;: int not null FK -&amp;gt; gates" style="text;align=left;verticalAlign=middle;spacingLeft=4;spacingRight=4;overflow=hidden;rotatable=0;points=[[0,0.5],[1,0.5]];portConstraint=eastwest;whiteSpace=wrap;html=1;labelBackgroundColor=none;fontSize=14;" vertex="1" parent="l3O2OO2_3pEZGnwRh9ON-4">
          <mxGeometry y="280" width="360" height="40" as="geometry" />
        </mxCell>
        <mxCell id="l3O2OO2_3pEZGnwRh9ON-12" value="&lt;b style=&quot;font-size: 14px;&quot;&gt;arrival_gate_id&lt;/b&gt;: int not null FK -&amp;gt; gates" style="text;align=left;verticalAlign=middle;spacingLeft=4;spacingRight=4;overflow=hidden;rotatable=0;points=[[0,0.5],[1,0.5]];portConstraint=eastwest;whiteSpace=wrap;html=1;labelBackgroundColor=none;fontSize=14;" vertex="1" parent="l3O2OO2_3pEZGnwRh9ON-4">
          <mxGeometry y="320" width="360" height="40" as="geometry" />
        </mxCell>
        <mxCell id="l3O2OO2_3pEZGnwRh9ON-13" value="&lt;font style=&quot;font-size: 18px;&quot;&gt;&lt;b&gt;airports&lt;/b&gt;&lt;/font&gt;" style="swimlane;fontStyle=0;childLayout=stackLayout;horizontal=1;startSize=40;fillColor=#0050ef;horizontalStack=0;resizeParent=1;resizeParentMax=0;resizeLast=0;collapsible=1;marginBottom=0;whiteSpace=wrap;html=1;fontColor=#ffffff;strokeColor=#001DBC;labelBackgroundColor=none;strokeWidth=5;" vertex="1" parent="1">
          <mxGeometry x="7240" y="1400" width="360" height="240" as="geometry" />
        </mxCell>
        <mxCell id="l3O2OO2_3pEZGnwRh9ON-14" value="&lt;b style=&quot;font-size: 14px;&quot;&gt;id&lt;/b&gt;: serial PK" style="text;strokeColor=#001DBC;fillColor=#0050ef;align=left;verticalAlign=middle;spacingLeft=4;spacingRight=4;overflow=hidden;rotatable=0;points=[[0,0.5],[1,0.5]];portConstraint=eastwest;whiteSpace=wrap;html=1;labelBackgroundColor=none;fontColor=#ffffff;fontSize=14;" vertex="1" parent="l3O2OO2_3pEZGnwRh9ON-13">
          <mxGeometry y="40" width="360" height="40" as="geometry" />
        </mxCell>
        <mxCell id="l3O2OO2_3pEZGnwRh9ON-15" value="&lt;b style=&quot;font-size: 14px;&quot;&gt;name&lt;/b&gt;: text not null" style="text;align=left;verticalAlign=middle;spacingLeft=4;spacingRight=4;overflow=hidden;rotatable=0;points=[[0,0.5],[1,0.5]];portConstraint=eastwest;whiteSpace=wrap;html=1;labelBackgroundColor=none;fontSize=14;" vertex="1" parent="l3O2OO2_3pEZGnwRh9ON-13">
          <mxGeometry y="80" width="360" height="40" as="geometry" />
        </mxCell>
        <mxCell id="l3O2OO2_3pEZGnwRh9ON-16" value="&lt;b&gt;iata_code: &lt;/b&gt;text not null unique" style="text;align=left;verticalAlign=middle;spacingLeft=4;spacingRight=4;overflow=hidden;rotatable=0;points=[[0,0.5],[1,0.5]];portConstraint=eastwest;whiteSpace=wrap;html=1;labelBackgroundColor=none;fontSize=14;" vertex="1" parent="l3O2OO2_3pEZGnwRh9ON-13">
          <mxGeometry y="120" width="360" height="40" as="geometry" />
        </mxCell>
        <mxCell id="l3O2OO2_3pEZGnwRh9ON-17" value="&lt;b&gt;city: &lt;/b&gt;text not null" style="text;align=left;verticalAlign=middle;spacingLeft=4;spacingRight=4;overflow=hidden;rotatable=0;points=[[0,0.5],[1,0.5]];portConstraint=eastwest;whiteSpace=wrap;html=1;labelBackgroundColor=none;fontSize=14;" vertex="1" parent="l3O2OO2_3pEZGnwRh9ON-13">
          <mxGeometry y="160" width="360" height="40" as="geometry" />
        </mxCell>
        <mxCell id="l3O2OO2_3pEZGnwRh9ON-18" value="&lt;b style=&quot;font-size: 14px;&quot;&gt;country&lt;/b&gt;: text not null" style="text;align=left;verticalAlign=middle;spacingLeft=4;spacingRight=4;overflow=hidden;rotatable=0;points=[[0,0.5],[1,0.5]];portConstraint=eastwest;whiteSpace=wrap;html=1;labelBackgroundColor=none;fontSize=14;" vertex="1" parent="l3O2OO2_3pEZGnwRh9ON-13">
          <mxGeometry y="200" width="360" height="40" as="geometry" />
        </mxCell>
        <mxCell id="l3O2OO2_3pEZGnwRh9ON-19" value="&lt;font style=&quot;font-size: 18px;&quot;&gt;&lt;b&gt;gates&lt;/b&gt;&lt;/font&gt;" style="swimlane;fontStyle=0;childLayout=stackLayout;horizontal=1;startSize=40;fillColor=#0050ef;horizontalStack=0;resizeParent=1;resizeParentMax=0;resizeLast=0;collapsible=1;marginBottom=0;whiteSpace=wrap;html=1;fontColor=#ffffff;strokeColor=#001DBC;labelBackgroundColor=none;" vertex="1" parent="1">
          <mxGeometry x="7840" y="1570" width="360" height="200" as="geometry" />
        </mxCell>
        <mxCell id="l3O2OO2_3pEZGnwRh9ON-20" value="&lt;b style=&quot;font-size: 14px;&quot;&gt;id&lt;/b&gt;: serial PK" style="text;strokeColor=#001DBC;fillColor=#0050ef;align=left;verticalAlign=middle;spacingLeft=4;spacingRight=4;overflow=hidden;rotatable=0;points=[[0,0.5],[1,0.5]];portConstraint=eastwest;whiteSpace=wrap;html=1;labelBackgroundColor=none;fontColor=#ffffff;fontSize=14;" vertex="1" parent="l3O2OO2_3pEZGnwRh9ON-19">
          <mxGeometry y="40" width="360" height="40" as="geometry" />
        </mxCell>
        <mxCell id="l3O2OO2_3pEZGnwRh9ON-21" value="&lt;b style=&quot;font-size: 14px;&quot;&gt;name&lt;/b&gt;: text not null" style="text;align=left;verticalAlign=middle;spacingLeft=4;spacingRight=4;overflow=hidden;rotatable=0;points=[[0,0.5],[1,0.5]];portConstraint=eastwest;whiteSpace=wrap;html=1;labelBackgroundColor=none;fontSize=14;" vertex="1" parent="l3O2OO2_3pEZGnwRh9ON-19">
          <mxGeometry y="80" width="360" height="40" as="geometry" />
        </mxCell>
        <mxCell id="l3O2OO2_3pEZGnwRh9ON-22" value="&lt;b&gt;terminal: &lt;/b&gt;text not null" style="text;align=left;verticalAlign=middle;spacingLeft=4;spacingRight=4;overflow=hidden;rotatable=0;points=[[0,0.5],[1,0.5]];portConstraint=eastwest;whiteSpace=wrap;html=1;labelBackgroundColor=none;fontSize=14;" vertex="1" parent="l3O2OO2_3pEZGnwRh9ON-19">
          <mxGeometry y="120" width="360" height="40" as="geometry" />
        </mxCell>
        <mxCell id="l3O2OO2_3pEZGnwRh9ON-23" value="&lt;b&gt;airport_id: &lt;/b&gt;smallint not null FK -&amp;gt; airports" style="text;align=left;verticalAlign=middle;spacingLeft=4;spacingRight=4;overflow=hidden;rotatable=0;points=[[0,0.5],[1,0.5]];portConstraint=eastwest;whiteSpace=wrap;html=1;labelBackgroundColor=none;fontSize=14;" vertex="1" parent="l3O2OO2_3pEZGnwRh9ON-19">
          <mxGeometry y="160" width="360" height="40" as="geometry" />
        </mxCell>
        <mxCell id="l3O2OO2_3pEZGnwRh9ON-24" value="&lt;font style=&quot;font-size: 18px;&quot;&gt;&lt;b&gt;airplanes&lt;br&gt;&lt;/b&gt;&lt;/font&gt;" style="swimlane;fontStyle=0;childLayout=stackLayout;horizontal=1;startSize=40;fillColor=#0050ef;horizontalStack=0;resizeParent=1;resizeParentMax=0;resizeLast=0;collapsible=1;marginBottom=0;whiteSpace=wrap;html=1;fontColor=#ffffff;strokeColor=#001DBC;labelBackgroundColor=none;" vertex="1" parent="1">
          <mxGeometry x="7240" y="1120" width="360" height="200" as="geometry" />
        </mxCell>
        <mxCell id="l3O2OO2_3pEZGnwRh9ON-25" value="&lt;b style=&quot;font-size: 14px;&quot;&gt;id&lt;/b&gt;: serial PK" style="text;strokeColor=#001DBC;fillColor=#0050ef;align=left;verticalAlign=middle;spacingLeft=4;spacingRight=4;overflow=hidden;rotatable=0;points=[[0,0.5],[1,0.5]];portConstraint=eastwest;whiteSpace=wrap;html=1;labelBackgroundColor=none;fontColor=#ffffff;fontSize=14;" vertex="1" parent="l3O2OO2_3pEZGnwRh9ON-24">
          <mxGeometry y="40" width="360" height="40" as="geometry" />
        </mxCell>
        <mxCell id="l3O2OO2_3pEZGnwRh9ON-26" value="&lt;b&gt;model_id: &lt;/b&gt;smallint not null FK -&amp;gt; airplane_models" style="text;align=left;verticalAlign=middle;spacingLeft=4;spacingRight=4;overflow=hidden;rotatable=0;points=[[0,0.5],[1,0.5]];portConstraint=eastwest;whiteSpace=wrap;html=1;labelBackgroundColor=none;fontSize=14;" vertex="1" parent="l3O2OO2_3pEZGnwRh9ON-24">
          <mxGeometry y="80" width="360" height="40" as="geometry" />
        </mxCell>
        <mxCell id="l3O2OO2_3pEZGnwRh9ON-27" value="&lt;b&gt;airline_id: &lt;/b&gt;smallint not null FK -&amp;gt; airlines" style="text;align=left;verticalAlign=middle;spacingLeft=4;spacingRight=4;overflow=hidden;rotatable=0;points=[[0,0.5],[1,0.5]];portConstraint=eastwest;whiteSpace=wrap;html=1;labelBackgroundColor=none;fontSize=14;" vertex="1" parent="l3O2OO2_3pEZGnwRh9ON-24">
          <mxGeometry y="120" width="360" height="40" as="geometry" />
        </mxCell>
        <mxCell id="l3O2OO2_3pEZGnwRh9ON-28" value="&lt;b&gt;airport_id: &lt;/b&gt;smallint not null FK -&amp;gt; airports" style="text;align=left;verticalAlign=middle;spacingLeft=4;spacingRight=4;overflow=hidden;rotatable=0;points=[[0,0.5],[1,0.5]];portConstraint=eastwest;whiteSpace=wrap;html=1;labelBackgroundColor=none;fontSize=14;" vertex="1" parent="l3O2OO2_3pEZGnwRh9ON-24">
          <mxGeometry y="160" width="360" height="40" as="geometry" />
        </mxCell>
        <mxCell id="l3O2OO2_3pEZGnwRh9ON-29" value="&lt;font style=&quot;font-size: 18px;&quot;&gt;&lt;b&gt;airplane_models&lt;br&gt;&lt;/b&gt;&lt;/font&gt;" style="swimlane;fontStyle=0;childLayout=stackLayout;horizontal=1;startSize=40;fillColor=#0050ef;horizontalStack=0;resizeParent=1;resizeParentMax=0;resizeLast=0;collapsible=1;marginBottom=0;whiteSpace=wrap;html=1;fontColor=#ffffff;strokeColor=#001DBC;labelBackgroundColor=none;" vertex="1" parent="1">
          <mxGeometry x="7240" y="2000" width="360" height="160" as="geometry" />
        </mxCell>
        <mxCell id="l3O2OO2_3pEZGnwRh9ON-30" value="&lt;b style=&quot;font-size: 14px;&quot;&gt;id&lt;/b&gt;: serial PK" style="text;strokeColor=#001DBC;fillColor=#0050ef;align=left;verticalAlign=middle;spacingLeft=4;spacingRight=4;overflow=hidden;rotatable=0;points=[[0,0.5],[1,0.5]];portConstraint=eastwest;whiteSpace=wrap;html=1;labelBackgroundColor=none;fontColor=#ffffff;fontSize=14;" vertex="1" parent="l3O2OO2_3pEZGnwRh9ON-29">
          <mxGeometry y="40" width="360" height="40" as="geometry" />
        </mxCell>
        <mxCell id="l3O2OO2_3pEZGnwRh9ON-31" value="&lt;b&gt;manufacturer: &lt;/b&gt;text not null" style="text;align=left;verticalAlign=middle;spacingLeft=4;spacingRight=4;overflow=hidden;rotatable=0;points=[[0,0.5],[1,0.5]];portConstraint=eastwest;whiteSpace=wrap;html=1;labelBackgroundColor=none;fontSize=14;" vertex="1" parent="l3O2OO2_3pEZGnwRh9ON-29">
          <mxGeometry y="80" width="360" height="40" as="geometry" />
        </mxCell>
        <mxCell id="l3O2OO2_3pEZGnwRh9ON-32" value="&lt;b&gt;title: &lt;/b&gt;text not null" style="text;align=left;verticalAlign=middle;spacingLeft=4;spacingRight=4;overflow=hidden;rotatable=0;points=[[0,0.5],[1,0.5]];portConstraint=eastwest;whiteSpace=wrap;html=1;labelBackgroundColor=none;fontSize=14;" vertex="1" parent="l3O2OO2_3pEZGnwRh9ON-29">
          <mxGeometry y="120" width="360" height="40" as="geometry" />
        </mxCell>
        <mxCell id="l3O2OO2_3pEZGnwRh9ON-33" value="&lt;font style=&quot;font-size: 18px;&quot;&gt;&lt;b&gt;[ users ]&lt;br&gt;&lt;/b&gt;&lt;/font&gt;" style="swimlane;fontStyle=0;childLayout=stackLayout;horizontal=1;startSize=40;fillColor=#e3c800;horizontalStack=0;resizeParent=1;resizeParentMax=0;resizeLast=0;collapsible=1;marginBottom=0;whiteSpace=wrap;html=1;strokeColor=#B09500;labelBackgroundColor=none;strokeWidth=5;fontColor=#000000;" vertex="1" parent="1">
          <mxGeometry x="9760" y="650" width="360" height="400" as="geometry" />
        </mxCell>
        <mxCell id="l3O2OO2_3pEZGnwRh9ON-34" value="&lt;b style=&quot;font-size: 14px;&quot;&gt;id&lt;/b&gt;: uuid PK" style="text;strokeColor=#B09500;fillColor=#e3c800;align=left;verticalAlign=middle;spacingLeft=4;spacingRight=4;overflow=hidden;rotatable=0;points=[[0,0.5],[1,0.5]];portConstraint=eastwest;whiteSpace=wrap;html=1;labelBackgroundColor=none;fontColor=#000000;fontSize=14;" vertex="1" parent="l3O2OO2_3pEZGnwRh9ON-33">
          <mxGeometry y="40" width="360" height="40" as="geometry" />
        </mxCell>
        <mxCell id="l3O2OO2_3pEZGnwRh9ON-35" value="&lt;b&gt;created_at: &lt;/b&gt;timestamp not null" style="text;strokeColor=none;fillColor=none;align=left;verticalAlign=middle;spacingLeft=4;spacingRight=4;overflow=hidden;rotatable=0;points=[[0,0.5],[1,0.5]];portConstraint=eastwest;whiteSpace=wrap;html=1;labelBackgroundColor=none;fontColor=#EEEEEE;fontSize=14;" vertex="1" parent="l3O2OO2_3pEZGnwRh9ON-33">
          <mxGeometry y="80" width="360" height="40" as="geometry" />
        </mxCell>
        <mxCell id="l3O2OO2_3pEZGnwRh9ON-36" value="&lt;b style=&quot;font-size: 14px;&quot;&gt;name&lt;/b&gt;: text not null" style="text;strokeColor=none;fillColor=none;align=left;verticalAlign=middle;spacingLeft=4;spacingRight=4;overflow=hidden;rotatable=0;points=[[0,0.5],[1,0.5]];portConstraint=eastwest;whiteSpace=wrap;html=1;labelBackgroundColor=none;fontColor=#EEEEEE;fontSize=14;" vertex="1" parent="l3O2OO2_3pEZGnwRh9ON-33">
          <mxGeometry y="120" width="360" height="40" as="geometry" />
        </mxCell>
        <mxCell id="l3O2OO2_3pEZGnwRh9ON-37" value="&lt;b&gt;surname: &lt;/b&gt;text not null" style="text;strokeColor=none;fillColor=none;align=left;verticalAlign=middle;spacingLeft=4;spacingRight=4;overflow=hidden;rotatable=0;points=[[0,0.5],[1,0.5]];portConstraint=eastwest;whiteSpace=wrap;html=1;labelBackgroundColor=none;fontColor=#EEEEEE;fontSize=14;" vertex="1" parent="l3O2OO2_3pEZGnwRh9ON-33">
          <mxGeometry y="160" width="360" height="40" as="geometry" />
        </mxCell>
        <mxCell id="l3O2OO2_3pEZGnwRh9ON-38" value="&lt;b&gt;patronymic: &lt;/b&gt;text null" style="text;strokeColor=none;fillColor=none;align=left;verticalAlign=middle;spacingLeft=4;spacingRight=4;overflow=hidden;rotatable=0;points=[[0,0.5],[1,0.5]];portConstraint=eastwest;whiteSpace=wrap;html=1;labelBackgroundColor=none;fontColor=#EEEEEE;fontSize=14;" vertex="1" parent="l3O2OO2_3pEZGnwRh9ON-33">
          <mxGeometry y="200" width="360" height="40" as="geometry" />
        </mxCell>
        <mxCell id="l3O2OO2_3pEZGnwRh9ON-39" value="&lt;b&gt;passport_number: &lt;/b&gt;text" style="text;strokeColor=none;fillColor=none;align=left;verticalAlign=middle;spacingLeft=4;spacingRight=4;overflow=hidden;rotatable=0;points=[[0,0.5],[1,0.5]];portConstraint=eastwest;whiteSpace=wrap;html=1;labelBackgroundColor=none;fontColor=#EEEEEE;fontSize=14;" vertex="1" parent="l3O2OO2_3pEZGnwRh9ON-33">
          <mxGeometry y="240" width="360" height="40" as="geometry" />
        </mxCell>
        <mxCell id="l3O2OO2_3pEZGnwRh9ON-40" value="&lt;b&gt;login: &lt;/b&gt;text not null" style="text;strokeColor=none;fillColor=none;align=left;verticalAlign=middle;spacingLeft=4;spacingRight=4;overflow=hidden;rotatable=0;points=[[0,0.5],[1,0.5]];portConstraint=eastwest;whiteSpace=wrap;html=1;labelBackgroundColor=none;fontColor=#EEEEEE;fontSize=14;" vertex="1" parent="l3O2OO2_3pEZGnwRh9ON-33">
          <mxGeometry y="280" width="360" height="40" as="geometry" />
        </mxCell>
        <mxCell id="l3O2OO2_3pEZGnwRh9ON-41" value="&lt;b&gt;password_hash: &lt;/b&gt;text not null" style="text;strokeColor=none;fillColor=none;align=left;verticalAlign=middle;spacingLeft=4;spacingRight=4;overflow=hidden;rotatable=0;points=[[0,0.5],[1,0.5]];portConstraint=eastwest;whiteSpace=wrap;html=1;labelBackgroundColor=none;fontColor=#EEEEEE;fontSize=14;" vertex="1" parent="l3O2OO2_3pEZGnwRh9ON-33">
          <mxGeometry y="320" width="360" height="40" as="geometry" />
        </mxCell>
        <mxCell id="l3O2OO2_3pEZGnwRh9ON-42" value="&lt;b&gt;salt: &lt;/b&gt;text not null" style="text;strokeColor=none;fillColor=none;align=left;verticalAlign=middle;spacingLeft=4;spacingRight=4;overflow=hidden;rotatable=0;points=[[0,0.5],[1,0.5]];portConstraint=eastwest;whiteSpace=wrap;html=1;labelBackgroundColor=none;fontColor=#EEEEEE;fontSize=14;" vertex="1" parent="l3O2OO2_3pEZGnwRh9ON-33">
          <mxGeometry y="360" width="360" height="40" as="geometry" />
        </mxCell>
        <mxCell id="l3O2OO2_3pEZGnwRh9ON-44" value="&lt;font style=&quot;font-size: 18px;&quot;&gt;&lt;b&gt;[ positions ]&lt;/b&gt;&lt;/font&gt;" style="swimlane;fontStyle=0;childLayout=stackLayout;horizontal=1;startSize=40;fillColor=#d80073;horizontalStack=0;resizeParent=1;resizeParentMax=0;resizeLast=0;collapsible=1;marginBottom=0;whiteSpace=wrap;html=1;fontColor=#ffffff;strokeColor=#A50040;labelBackgroundColor=none;strokeWidth=5;" vertex="1" parent="1">
          <mxGeometry x="7200" y="470" width="360" height="160" as="geometry" />
        </mxCell>
        <mxCell id="l3O2OO2_3pEZGnwRh9ON-45" value="&lt;b style=&quot;font-size: 14px;&quot;&gt;id&lt;/b&gt;: smallserial PK" style="text;strokeColor=#A50040;fillColor=#d80073;align=left;verticalAlign=middle;spacingLeft=4;spacingRight=4;overflow=hidden;rotatable=0;points=[[0,0.5],[1,0.5]];portConstraint=eastwest;whiteSpace=wrap;html=1;labelBackgroundColor=none;fontColor=#ffffff;fontSize=14;" vertex="1" parent="l3O2OO2_3pEZGnwRh9ON-44">
          <mxGeometry y="40" width="360" height="40" as="geometry" />
        </mxCell>
        <mxCell id="l3O2OO2_3pEZGnwRh9ON-46" value="&lt;b&gt;title: &lt;/b&gt;text not null" style="text;align=left;verticalAlign=middle;spacingLeft=4;spacingRight=4;overflow=hidden;rotatable=0;points=[[0,0.5],[1,0.5]];portConstraint=eastwest;whiteSpace=wrap;html=1;labelBackgroundColor=none;fontSize=14;" vertex="1" parent="l3O2OO2_3pEZGnwRh9ON-44">
          <mxGeometry y="80" width="360" height="40" as="geometry" />
        </mxCell>
        <mxCell id="l3O2OO2_3pEZGnwRh9ON-47" value="&lt;b&gt;description: &lt;/b&gt;text not null" style="text;align=left;verticalAlign=middle;spacingLeft=4;spacingRight=4;overflow=hidden;rotatable=0;points=[[0,0.5],[1,0.5]];portConstraint=eastwest;whiteSpace=wrap;html=1;labelBackgroundColor=none;fontSize=14;" vertex="1" parent="l3O2OO2_3pEZGnwRh9ON-44">
          <mxGeometry y="120" width="360" height="40" as="geometry" />
        </mxCell>
        <mxCell id="l3O2OO2_3pEZGnwRh9ON-48" value="&lt;font style=&quot;font-size: 18px;&quot;&gt;&lt;b&gt;[ roles ]&lt;/b&gt;&lt;/font&gt;" style="swimlane;fontStyle=0;childLayout=stackLayout;horizontal=1;startSize=40;fillColor=#d80073;horizontalStack=0;resizeParent=1;resizeParentMax=0;resizeLast=0;collapsible=1;marginBottom=0;whiteSpace=wrap;html=1;fontColor=#ffffff;strokeColor=#A50040;labelBackgroundColor=none;strokeWidth=5;" vertex="1" parent="1">
          <mxGeometry x="7200" y="240" width="360" height="200" as="geometry" />
        </mxCell>
        <mxCell id="l3O2OO2_3pEZGnwRh9ON-49" value="&lt;b style=&quot;font-size: 14px;&quot;&gt;id&lt;/b&gt;: smallserial PK" style="text;strokeColor=#A50040;fillColor=#d80073;align=left;verticalAlign=middle;spacingLeft=4;spacingRight=4;overflow=hidden;rotatable=0;points=[[0,0.5],[1,0.5]];portConstraint=eastwest;whiteSpace=wrap;html=1;labelBackgroundColor=none;fontColor=#ffffff;fontSize=14;" vertex="1" parent="l3O2OO2_3pEZGnwRh9ON-48">
          <mxGeometry y="40" width="360" height="40" as="geometry" />
        </mxCell>
        <mxCell id="l3O2OO2_3pEZGnwRh9ON-50" value="&lt;b&gt;title: &lt;/b&gt;text not null" style="text;align=left;verticalAlign=middle;spacingLeft=4;spacingRight=4;overflow=hidden;rotatable=0;points=[[0,0.5],[1,0.5]];portConstraint=eastwest;whiteSpace=wrap;html=1;labelBackgroundColor=none;fontSize=14;" vertex="1" parent="l3O2OO2_3pEZGnwRh9ON-48">
          <mxGeometry y="80" width="360" height="40" as="geometry" />
        </mxCell>
        <mxCell id="l3O2OO2_3pEZGnwRh9ON-51" value="&lt;b&gt;description: &lt;/b&gt;text not null" style="text;align=left;verticalAlign=middle;spacingLeft=4;spacingRight=4;overflow=hidden;rotatable=0;points=[[0,0.5],[1,0.5]];portConstraint=eastwest;whiteSpace=wrap;html=1;labelBackgroundColor=none;fontSize=14;" vertex="1" parent="l3O2OO2_3pEZGnwRh9ON-48">
          <mxGeometry y="120" width="360" height="40" as="geometry" />
        </mxCell>
        <mxCell id="l3O2OO2_3pEZGnwRh9ON-52" value="&lt;b&gt;system_name: &lt;/b&gt;text not null unique" style="text;align=left;verticalAlign=middle;spacingLeft=4;spacingRight=4;overflow=hidden;rotatable=0;points=[[0,0.5],[1,0.5]];portConstraint=eastwest;whiteSpace=wrap;html=1;labelBackgroundColor=none;fontSize=14;" vertex="1" parent="l3O2OO2_3pEZGnwRh9ON-48">
          <mxGeometry y="160" width="360" height="40" as="geometry" />
        </mxCell>
        <mxCell id="l3O2OO2_3pEZGnwRh9ON-58" value="&lt;font style=&quot;font-size: 18px;&quot;&gt;&lt;b&gt;[ staff ]&lt;br&gt;&lt;/b&gt;&lt;/font&gt;" style="swimlane;fontStyle=0;childLayout=stackLayout;horizontal=1;startSize=40;fillColor=#d80073;horizontalStack=0;resizeParent=1;resizeParentMax=0;resizeLast=0;collapsible=1;marginBottom=0;whiteSpace=wrap;html=1;fontColor=#ffffff;strokeColor=#A50040;labelBackgroundColor=none;strokeWidth=5;" vertex="1" parent="1">
          <mxGeometry x="7680" y="230" width="360" height="400" as="geometry" />
        </mxCell>
        <mxCell id="l3O2OO2_3pEZGnwRh9ON-59" value="&lt;b style=&quot;font-size: 14px;&quot;&gt;id&lt;/b&gt;: uuid PK" style="text;strokeColor=#A50040;fillColor=#d80073;align=left;verticalAlign=middle;spacingLeft=4;spacingRight=4;overflow=hidden;rotatable=0;points=[[0,0.5],[1,0.5]];portConstraint=eastwest;whiteSpace=wrap;html=1;labelBackgroundColor=none;fontColor=#ffffff;fontSize=14;" vertex="1" parent="l3O2OO2_3pEZGnwRh9ON-58">
          <mxGeometry y="40" width="360" height="40" as="geometry" />
        </mxCell>
        <mxCell id="l3O2OO2_3pEZGnwRh9ON-60" value="&lt;b style=&quot;font-size: 14px;&quot;&gt;name&lt;/b&gt;: text not null" style="text;align=left;verticalAlign=middle;spacingLeft=4;spacingRight=4;overflow=hidden;rotatable=0;points=[[0,0.5],[1,0.5]];portConstraint=eastwest;whiteSpace=wrap;html=1;labelBackgroundColor=none;fontSize=14;" vertex="1" parent="l3O2OO2_3pEZGnwRh9ON-58">
          <mxGeometry y="80" width="360" height="40" as="geometry" />
        </mxCell>
        <mxCell id="l3O2OO2_3pEZGnwRh9ON-61" value="&lt;b&gt;surname: &lt;/b&gt;text not null" style="text;align=left;verticalAlign=middle;spacingLeft=4;spacingRight=4;overflow=hidden;rotatable=0;points=[[0,0.5],[1,0.5]];portConstraint=eastwest;whiteSpace=wrap;html=1;labelBackgroundColor=none;fontSize=14;" vertex="1" parent="l3O2OO2_3pEZGnwRh9ON-58">
          <mxGeometry y="120" width="360" height="40" as="geometry" />
        </mxCell>
        <mxCell id="l3O2OO2_3pEZGnwRh9ON-62" value="&lt;b&gt;patronymic: &lt;/b&gt;text null" style="text;align=left;verticalAlign=middle;spacingLeft=4;spacingRight=4;overflow=hidden;rotatable=0;points=[[0,0.5],[1,0.5]];portConstraint=eastwest;whiteSpace=wrap;html=1;labelBackgroundColor=none;fontSize=14;" vertex="1" parent="l3O2OO2_3pEZGnwRh9ON-58">
          <mxGeometry y="160" width="360" height="40" as="geometry" />
        </mxCell>
        <mxCell id="l3O2OO2_3pEZGnwRh9ON-63" value="&lt;b&gt;position_id: &lt;/b&gt;smallint not null FK -&amp;gt; positions" style="text;align=left;verticalAlign=middle;spacingLeft=4;spacingRight=4;overflow=hidden;rotatable=0;points=[[0,0.5],[1,0.5]];portConstraint=eastwest;whiteSpace=wrap;html=1;labelBackgroundColor=none;fontSize=14;" vertex="1" parent="l3O2OO2_3pEZGnwRh9ON-58">
          <mxGeometry y="200" width="360" height="40" as="geometry" />
        </mxCell>
        <mxCell id="l3O2OO2_3pEZGnwRh9ON-64" value="&lt;b&gt;created_at: &lt;/b&gt;timestamp not null" style="text;align=left;verticalAlign=middle;spacingLeft=4;spacingRight=4;overflow=hidden;rotatable=0;points=[[0,0.5],[1,0.5]];portConstraint=eastwest;whiteSpace=wrap;html=1;labelBackgroundColor=none;fontSize=14;" vertex="1" parent="l3O2OO2_3pEZGnwRh9ON-58">
          <mxGeometry y="240" width="360" height="40" as="geometry" />
        </mxCell>
        <mxCell id="l3O2OO2_3pEZGnwRh9ON-65" value="&lt;b&gt;login: &lt;/b&gt;text not null" style="text;align=left;verticalAlign=middle;spacingLeft=4;spacingRight=4;overflow=hidden;rotatable=0;points=[[0,0.5],[1,0.5]];portConstraint=eastwest;whiteSpace=wrap;html=1;labelBackgroundColor=none;fontSize=14;" vertex="1" parent="l3O2OO2_3pEZGnwRh9ON-58">
          <mxGeometry y="280" width="360" height="40" as="geometry" />
        </mxCell>
        <mxCell id="l3O2OO2_3pEZGnwRh9ON-66" value="&lt;b&gt;password_hash: &lt;/b&gt;text not null" style="text;align=left;verticalAlign=middle;spacingLeft=4;spacingRight=4;overflow=hidden;rotatable=0;points=[[0,0.5],[1,0.5]];portConstraint=eastwest;whiteSpace=wrap;html=1;labelBackgroundColor=none;fontSize=14;" vertex="1" parent="l3O2OO2_3pEZGnwRh9ON-58">
          <mxGeometry y="320" width="360" height="40" as="geometry" />
        </mxCell>
        <mxCell id="l3O2OO2_3pEZGnwRh9ON-173" value="&lt;b&gt;salt: &lt;/b&gt;text not null" style="text;align=left;verticalAlign=middle;spacingLeft=4;spacingRight=4;overflow=hidden;rotatable=0;points=[[0,0.5],[1,0.5]];portConstraint=eastwest;whiteSpace=wrap;html=1;labelBackgroundColor=none;fontSize=14;" vertex="1" parent="l3O2OO2_3pEZGnwRh9ON-58">
          <mxGeometry y="360" width="360" height="40" as="geometry" />
        </mxCell>
        <mxCell id="l3O2OO2_3pEZGnwRh9ON-68" value="&lt;font style=&quot;font-size: 18px;&quot;&gt;&lt;b&gt;[ purchased_products ]&lt;br&gt;&lt;/b&gt;&lt;/font&gt;" style="swimlane;fontStyle=0;childLayout=stackLayout;horizontal=1;startSize=40;fillColor=#09555B;horizontalStack=0;resizeParent=1;resizeParentMax=0;resizeLast=0;collapsible=1;marginBottom=0;whiteSpace=wrap;html=1;fontColor=#EEEEEE;strokeColor=#098591;labelBackgroundColor=none;strokeWidth=5;" vertex="1" parent="1">
          <mxGeometry x="9120" y="1520" width="360" height="320" as="geometry" />
        </mxCell>
        <mxCell id="l3O2OO2_3pEZGnwRh9ON-69" value="&lt;b style=&quot;font-size: 14px;&quot;&gt;id&lt;/b&gt;: uuid PK" style="text;strokeColor=#BAC8D3;fillColor=#09555B;align=left;verticalAlign=middle;spacingLeft=4;spacingRight=4;overflow=hidden;rotatable=0;points=[[0,0.5],[1,0.5]];portConstraint=eastwest;whiteSpace=wrap;html=1;labelBackgroundColor=none;fontColor=#EEEEEE;fontSize=14;" vertex="1" parent="l3O2OO2_3pEZGnwRh9ON-68">
          <mxGeometry y="40" width="360" height="40" as="geometry" />
        </mxCell>
        <mxCell id="l3O2OO2_3pEZGnwRh9ON-70" value="&lt;b&gt;product_id: &lt;/b&gt;uuid not null FK -&amp;gt; products" style="text;strokeColor=none;fillColor=none;align=left;verticalAlign=middle;spacingLeft=4;spacingRight=4;overflow=hidden;rotatable=0;points=[[0,0.5],[1,0.5]];portConstraint=eastwest;whiteSpace=wrap;html=1;labelBackgroundColor=none;fontColor=#EEEEEE;fontSize=14;" vertex="1" parent="l3O2OO2_3pEZGnwRh9ON-68">
          <mxGeometry y="80" width="360" height="40" as="geometry" />
        </mxCell>
        <mxCell id="l3O2OO2_3pEZGnwRh9ON-71" value="&lt;b&gt;purchase_id: &lt;/b&gt;uuid not null" style="text;strokeColor=none;fillColor=none;align=left;verticalAlign=middle;spacingLeft=4;spacingRight=4;overflow=hidden;rotatable=0;points=[[0,0.5],[1,0.5]];portConstraint=eastwest;whiteSpace=wrap;html=1;labelBackgroundColor=none;fontColor=#EEEEEE;fontSize=14;" vertex="1" parent="l3O2OO2_3pEZGnwRh9ON-68">
          <mxGeometry y="120" width="360" height="40" as="geometry" />
        </mxCell>
        <mxCell id="l3O2OO2_3pEZGnwRh9ON-72" value="&lt;b&gt;quantity: smallint null&lt;/b&gt;" style="text;strokeColor=none;fillColor=none;align=left;verticalAlign=middle;spacingLeft=4;spacingRight=4;overflow=hidden;rotatable=0;points=[[0,0.5],[1,0.5]];portConstraint=eastwest;whiteSpace=wrap;html=1;labelBackgroundColor=none;fontColor=#EEEEEE;fontSize=14;" vertex="1" parent="l3O2OO2_3pEZGnwRh9ON-68">
          <mxGeometry y="160" width="360" height="40" as="geometry" />
        </mxCell>
        <mxCell id="l3O2OO2_3pEZGnwRh9ON-73" value="&lt;b&gt;discriminator: text not null&lt;/b&gt;" style="text;strokeColor=none;fillColor=none;align=left;verticalAlign=middle;spacingLeft=4;spacingRight=4;overflow=hidden;rotatable=0;points=[[0,0.5],[1,0.5]];portConstraint=eastwest;whiteSpace=wrap;html=1;labelBackgroundColor=none;fontColor=#EEEEEE;fontSize=14;" vertex="1" parent="l3O2OO2_3pEZGnwRh9ON-68">
          <mxGeometry y="200" width="360" height="40" as="geometry" />
        </mxCell>
        <mxCell id="l3O2OO2_3pEZGnwRh9ON-74" value="&lt;font style=&quot;font-size: 18px;&quot;&gt;&lt;b&gt;[ dicriminator: Ticket ]&lt;br&gt;&lt;/b&gt;&lt;/font&gt;" style="swimlane;fontStyle=0;childLayout=stackLayout;horizontal=1;startSize=40;horizontalStack=0;resizeParent=1;resizeParentMax=0;resizeLast=0;collapsible=1;marginBottom=0;whiteSpace=wrap;html=1;labelBackgroundColor=none;strokeWidth=5;fillColor=#647687;fontColor=#ffffff;strokeColor=#314354;" vertex="1" parent="l3O2OO2_3pEZGnwRh9ON-68">
          <mxGeometry y="240" width="360" height="80" as="geometry" />
        </mxCell>
        <mxCell id="l3O2OO2_3pEZGnwRh9ON-75" value="&lt;b&gt;seat_number: &lt;/b&gt;smallint not null" style="text;strokeColor=none;fillColor=none;align=left;verticalAlign=middle;spacingLeft=4;spacingRight=4;overflow=hidden;rotatable=0;points=[[0,0.5],[1,0.5]];portConstraint=eastwest;whiteSpace=wrap;html=1;labelBackgroundColor=none;fontColor=#EEEEEE;fontSize=14;" vertex="1" parent="l3O2OO2_3pEZGnwRh9ON-74">
          <mxGeometry y="40" width="360" height="40" as="geometry" />
        </mxCell>
        <mxCell id="l3O2OO2_3pEZGnwRh9ON-76" value="&lt;font style=&quot;font-size: 18px;&quot;&gt;&lt;b&gt;products&lt;br&gt;&lt;/b&gt;&lt;/font&gt;" style="swimlane;fontStyle=0;childLayout=stackLayout;horizontal=1;startSize=40;fillColor=#09555B;horizontalStack=0;resizeParent=1;resizeParentMax=0;resizeLast=0;collapsible=1;marginBottom=0;whiteSpace=wrap;html=1;fontColor=#EEEEEE;strokeColor=#098591;labelBackgroundColor=none;strokeWidth=5;" vertex="1" parent="1">
          <mxGeometry x="8600" y="1120" width="360" height="400" as="geometry" />
        </mxCell>
        <mxCell id="l3O2OO2_3pEZGnwRh9ON-77" value="&lt;b style=&quot;font-size: 14px;&quot;&gt;id&lt;/b&gt;: uuid PK" style="text;strokeColor=#BAC8D3;fillColor=#09555B;align=left;verticalAlign=middle;spacingLeft=4;spacingRight=4;overflow=hidden;rotatable=0;points=[[0,0.5],[1,0.5]];portConstraint=eastwest;whiteSpace=wrap;html=1;labelBackgroundColor=none;fontColor=#EEEEEE;fontSize=14;" vertex="1" parent="l3O2OO2_3pEZGnwRh9ON-76">
          <mxGeometry y="40" width="360" height="40" as="geometry" />
        </mxCell>
        <mxCell id="l3O2OO2_3pEZGnwRh9ON-78" value="&lt;b&gt;title: &lt;/b&gt;text not null" style="text;strokeColor=none;fillColor=none;align=left;verticalAlign=middle;spacingLeft=4;spacingRight=4;overflow=hidden;rotatable=0;points=[[0,0.5],[1,0.5]];portConstraint=eastwest;whiteSpace=wrap;html=1;labelBackgroundColor=none;fontColor=#EEEEEE;fontSize=14;" vertex="1" parent="l3O2OO2_3pEZGnwRh9ON-76">
          <mxGeometry y="80" width="360" height="40" as="geometry" />
        </mxCell>
        <mxCell id="l3O2OO2_3pEZGnwRh9ON-79" value="&lt;b&gt;quantity: &lt;/b&gt;int&amp;nbsp;null" style="text;strokeColor=none;fillColor=none;align=left;verticalAlign=middle;spacingLeft=4;spacingRight=4;overflow=hidden;rotatable=0;points=[[0,0.5],[1,0.5]];portConstraint=eastwest;whiteSpace=wrap;html=1;labelBackgroundColor=none;fontColor=#EEEEEE;fontSize=14;" vertex="1" parent="l3O2OO2_3pEZGnwRh9ON-76">
          <mxGeometry y="120" width="360" height="40" as="geometry" />
        </mxCell>
        <mxCell id="l3O2OO2_3pEZGnwRh9ON-80" value="&lt;b&gt;deleted: boolean not null default false&lt;/b&gt;" style="text;strokeColor=none;fillColor=none;align=left;verticalAlign=middle;spacingLeft=4;spacingRight=4;overflow=hidden;rotatable=0;points=[[0,0.5],[1,0.5]];portConstraint=eastwest;whiteSpace=wrap;html=1;labelBackgroundColor=none;fontColor=#EEEEEE;fontSize=14;" vertex="1" parent="l3O2OO2_3pEZGnwRh9ON-76">
          <mxGeometry y="160" width="360" height="40" as="geometry" />
        </mxCell>
        <mxCell id="l3O2OO2_3pEZGnwRh9ON-81" value="&lt;b&gt;created_by: uuid not null FK -&amp;gt; staff&lt;/b&gt;" style="text;strokeColor=none;fillColor=none;align=left;verticalAlign=middle;spacingLeft=4;spacingRight=4;overflow=hidden;rotatable=0;points=[[0,0.5],[1,0.5]];portConstraint=eastwest;whiteSpace=wrap;html=1;labelBackgroundColor=none;fontColor=#EEEEEE;fontSize=14;" vertex="1" parent="l3O2OO2_3pEZGnwRh9ON-76">
          <mxGeometry y="200" width="360" height="40" as="geometry" />
        </mxCell>
        <mxCell id="l3O2OO2_3pEZGnwRh9ON-82" value="&lt;b&gt;discriminator: &lt;/b&gt;text not null" style="text;strokeColor=none;fillColor=none;align=left;verticalAlign=middle;spacingLeft=4;spacingRight=4;overflow=hidden;rotatable=0;points=[[0,0.5],[1,0.5]];portConstraint=eastwest;whiteSpace=wrap;html=1;labelBackgroundColor=none;fontColor=#EEEEEE;fontSize=14;" vertex="1" parent="l3O2OO2_3pEZGnwRh9ON-76">
          <mxGeometry y="240" width="360" height="40" as="geometry" />
        </mxCell>
        <mxCell id="l3O2OO2_3pEZGnwRh9ON-83" value="&lt;font style=&quot;font-size: 18px;&quot;&gt;&lt;b&gt;[ dicriminator: TicketProduct ]&lt;br&gt;&lt;/b&gt;&lt;/font&gt;" style="swimlane;fontStyle=0;childLayout=stackLayout;horizontal=1;startSize=40;horizontalStack=0;resizeParent=1;resizeParentMax=0;resizeLast=0;collapsible=1;marginBottom=0;whiteSpace=wrap;html=1;labelBackgroundColor=none;strokeWidth=5;fillColor=#647687;fontColor=#ffffff;strokeColor=#314354;" vertex="1" parent="l3O2OO2_3pEZGnwRh9ON-76">
          <mxGeometry y="280" width="360" height="120" as="geometry" />
        </mxCell>
        <mxCell id="l3O2OO2_3pEZGnwRh9ON-84" value="&lt;b&gt;flight_id: &lt;/b&gt;uuid not null FK -&amp;gt; not null" style="text;strokeColor=none;fillColor=none;align=left;verticalAlign=middle;spacingLeft=4;spacingRight=4;overflow=hidden;rotatable=0;points=[[0,0.5],[1,0.5]];portConstraint=eastwest;whiteSpace=wrap;html=1;labelBackgroundColor=none;fontColor=#EEEEEE;fontSize=14;" vertex="1" parent="l3O2OO2_3pEZGnwRh9ON-83">
          <mxGeometry y="40" width="360" height="40" as="geometry" />
        </mxCell>
        <mxCell id="l3O2OO2_3pEZGnwRh9ON-85" value="&lt;b&gt;class_id: uuid not null FK -&amp;gt; rows_classes&lt;/b&gt;" style="text;strokeColor=none;fillColor=none;align=left;verticalAlign=middle;spacingLeft=4;spacingRight=4;overflow=hidden;rotatable=0;points=[[0,0.5],[1,0.5]];portConstraint=eastwest;whiteSpace=wrap;html=1;labelBackgroundColor=none;fontColor=#EEEEEE;fontSize=14;" vertex="1" parent="l3O2OO2_3pEZGnwRh9ON-83">
          <mxGeometry y="80" width="360" height="40" as="geometry" />
        </mxCell>
        <mxCell id="l3O2OO2_3pEZGnwRh9ON-86" value="&lt;font style=&quot;font-size: 18px;&quot;&gt;&lt;b&gt;[ purchases ]&lt;br&gt;&lt;/b&gt;&lt;/font&gt;" style="swimlane;fontStyle=0;childLayout=stackLayout;horizontal=1;startSize=40;fillColor=#09555B;horizontalStack=0;resizeParent=1;resizeParentMax=0;resizeLast=0;collapsible=1;marginBottom=0;whiteSpace=wrap;html=1;fontColor=#EEEEEE;strokeColor=#098591;labelBackgroundColor=none;strokeWidth=5;" vertex="1" parent="1">
          <mxGeometry x="9120" y="1130" width="360" height="280" as="geometry" />
        </mxCell>
        <mxCell id="l3O2OO2_3pEZGnwRh9ON-87" value="&lt;b style=&quot;font-size: 14px;&quot;&gt;id&lt;/b&gt;: uuid PK" style="text;strokeColor=#BAC8D3;fillColor=#09555B;align=left;verticalAlign=middle;spacingLeft=4;spacingRight=4;overflow=hidden;rotatable=0;points=[[0,0.5],[1,0.5]];portConstraint=eastwest;whiteSpace=wrap;html=1;labelBackgroundColor=none;fontColor=#EEEEEE;fontSize=14;" vertex="1" parent="l3O2OO2_3pEZGnwRh9ON-86">
          <mxGeometry y="40" width="360" height="40" as="geometry" />
        </mxCell>
        <mxCell id="l3O2OO2_3pEZGnwRh9ON-88" value="&lt;b&gt;created_at: &lt;/b&gt;timestamp not null" style="text;strokeColor=none;fillColor=none;align=left;verticalAlign=middle;spacingLeft=4;spacingRight=4;overflow=hidden;rotatable=0;points=[[0,0.5],[1,0.5]];portConstraint=eastwest;whiteSpace=wrap;html=1;labelBackgroundColor=none;fontColor=#EEEEEE;fontSize=14;" vertex="1" parent="l3O2OO2_3pEZGnwRh9ON-86">
          <mxGeometry y="80" width="360" height="40" as="geometry" />
        </mxCell>
        <mxCell id="l3O2OO2_3pEZGnwRh9ON-89" value="&lt;b&gt;user_id: &lt;/b&gt;uuid not null FK -&amp;gt; users" style="text;strokeColor=none;fillColor=none;align=left;verticalAlign=middle;spacingLeft=4;spacingRight=4;overflow=hidden;rotatable=0;points=[[0,0.5],[1,0.5]];portConstraint=eastwest;whiteSpace=wrap;html=1;labelBackgroundColor=none;fontColor=#EEEEEE;fontSize=14;" vertex="1" parent="l3O2OO2_3pEZGnwRh9ON-86">
          <mxGeometry y="120" width="360" height="40" as="geometry" />
        </mxCell>
        <mxCell id="l3O2OO2_3pEZGnwRh9ON-90" value="&lt;b&gt;total_price: &lt;/b&gt;money not null" style="text;strokeColor=none;fillColor=none;align=left;verticalAlign=middle;spacingLeft=4;spacingRight=4;overflow=hidden;rotatable=0;points=[[0,0.5],[1,0.5]];portConstraint=eastwest;whiteSpace=wrap;html=1;labelBackgroundColor=none;fontColor=#EEEEEE;fontSize=14;" vertex="1" parent="l3O2OO2_3pEZGnwRh9ON-86">
          <mxGeometry y="160" width="360" height="40" as="geometry" />
        </mxCell>
        <mxCell id="l3O2OO2_3pEZGnwRh9ON-91" value="&lt;b&gt;paid_bonuses: int not null&lt;/b&gt;" style="text;strokeColor=none;fillColor=none;align=left;verticalAlign=middle;spacingLeft=4;spacingRight=4;overflow=hidden;rotatable=0;points=[[0,0.5],[1,0.5]];portConstraint=eastwest;whiteSpace=wrap;html=1;labelBackgroundColor=none;fontColor=#EEEEEE;fontSize=14;" vertex="1" parent="l3O2OO2_3pEZGnwRh9ON-86">
          <mxGeometry y="200" width="360" height="40" as="geometry" />
        </mxCell>
        <mxCell id="l3O2OO2_3pEZGnwRh9ON-92" value="&lt;b&gt;paid_money: money&amp;nbsp;not null&lt;/b&gt;" style="text;strokeColor=none;fillColor=none;align=left;verticalAlign=middle;spacingLeft=4;spacingRight=4;overflow=hidden;rotatable=0;points=[[0,0.5],[1,0.5]];portConstraint=eastwest;whiteSpace=wrap;html=1;labelBackgroundColor=none;fontColor=#EEEEEE;fontSize=14;" vertex="1" parent="l3O2OO2_3pEZGnwRh9ON-86">
          <mxGeometry y="240" width="360" height="40" as="geometry" />
        </mxCell>
        <mxCell id="l3O2OO2_3pEZGnwRh9ON-93" value="&lt;font style=&quot;font-size: 18px;&quot;&gt;&lt;b&gt;rows_classes&lt;br&gt;&lt;/b&gt;&lt;/font&gt;" style="swimlane;fontStyle=0;childLayout=stackLayout;horizontal=1;startSize=40;fillColor=#0050ef;horizontalStack=0;resizeParent=1;resizeParentMax=0;resizeLast=0;collapsible=1;marginBottom=0;whiteSpace=wrap;html=1;fontColor=#ffffff;strokeColor=#001DBC;labelBackgroundColor=none;" vertex="1" parent="1">
          <mxGeometry x="7840" y="1840" width="360" height="320" as="geometry" />
        </mxCell>
        <mxCell id="l3O2OO2_3pEZGnwRh9ON-94" value="&lt;b style=&quot;font-size: 14px;&quot;&gt;id&lt;/b&gt;: serial PK" style="text;strokeColor=#001DBC;fillColor=#0050ef;align=left;verticalAlign=middle;spacingLeft=4;spacingRight=4;overflow=hidden;rotatable=0;points=[[0,0.5],[1,0.5]];portConstraint=eastwest;whiteSpace=wrap;html=1;labelBackgroundColor=none;fontColor=#ffffff;fontSize=14;" vertex="1" parent="l3O2OO2_3pEZGnwRh9ON-93">
          <mxGeometry y="40" width="360" height="40" as="geometry" />
        </mxCell>
        <mxCell id="l3O2OO2_3pEZGnwRh9ON-95" value="&lt;b&gt;title: text not null&lt;/b&gt;" style="text;align=left;verticalAlign=middle;spacingLeft=4;spacingRight=4;overflow=hidden;rotatable=0;points=[[0,0.5],[1,0.5]];portConstraint=eastwest;whiteSpace=wrap;html=1;labelBackgroundColor=none;fontSize=14;" vertex="1" parent="l3O2OO2_3pEZGnwRh9ON-93">
          <mxGeometry y="80" width="360" height="40" as="geometry" />
        </mxCell>
        <mxCell id="l3O2OO2_3pEZGnwRh9ON-96" value="&lt;b&gt;service_level: smallint not null&lt;/b&gt;" style="text;align=left;verticalAlign=middle;spacingLeft=4;spacingRight=4;overflow=hidden;rotatable=0;points=[[0,0.5],[1,0.5]];portConstraint=eastwest;whiteSpace=wrap;html=1;labelBackgroundColor=none;fontSize=14;" vertex="1" parent="l3O2OO2_3pEZGnwRh9ON-93">
          <mxGeometry y="120" width="360" height="40" as="geometry" />
        </mxCell>
        <mxCell id="l3O2OO2_3pEZGnwRh9ON-97" value="&lt;b&gt;rows_count: smallint not null&lt;/b&gt;" style="text;align=left;verticalAlign=middle;spacingLeft=4;spacingRight=4;overflow=hidden;rotatable=0;points=[[0,0.5],[1,0.5]];portConstraint=eastwest;whiteSpace=wrap;html=1;labelBackgroundColor=none;fontSize=14;" vertex="1" parent="l3O2OO2_3pEZGnwRh9ON-93">
          <mxGeometry y="160" width="360" height="40" as="geometry" />
        </mxCell>
        <mxCell id="l3O2OO2_3pEZGnwRh9ON-98" value="&lt;b&gt;rows_offset: smallint not null&lt;/b&gt;" style="text;align=left;verticalAlign=middle;spacingLeft=4;spacingRight=4;overflow=hidden;rotatable=0;points=[[0,0.5],[1,0.5]];portConstraint=eastwest;whiteSpace=wrap;html=1;labelBackgroundColor=none;fontSize=14;" vertex="1" parent="l3O2OO2_3pEZGnwRh9ON-93">
          <mxGeometry y="200" width="360" height="40" as="geometry" />
        </mxCell>
        <mxCell id="l3O2OO2_3pEZGnwRh9ON-99" value="&lt;b&gt;seats_per_row: smallint not null&lt;/b&gt;" style="text;align=left;verticalAlign=middle;spacingLeft=4;spacingRight=4;overflow=hidden;rotatable=0;points=[[0,0.5],[1,0.5]];portConstraint=eastwest;whiteSpace=wrap;html=1;labelBackgroundColor=none;fontSize=14;" vertex="1" parent="l3O2OO2_3pEZGnwRh9ON-93">
          <mxGeometry y="240" width="360" height="40" as="geometry" />
        </mxCell>
        <mxCell id="l3O2OO2_3pEZGnwRh9ON-100" value="&lt;b&gt;&lt;font style=&quot;font-size: 13px;&quot;&gt;airplane_model_id: int not null FK -&amp;gt; airplane_models&lt;/font&gt;&lt;/b&gt;" style="text;align=left;verticalAlign=middle;spacingLeft=4;spacingRight=4;overflow=hidden;rotatable=0;points=[[0,0.5],[1,0.5]];portConstraint=eastwest;whiteSpace=wrap;html=1;labelBackgroundColor=none;fontSize=14;" vertex="1" parent="l3O2OO2_3pEZGnwRh9ON-93">
          <mxGeometry y="280" width="360" height="40" as="geometry" />
        </mxCell>
        <mxCell id="l3O2OO2_3pEZGnwRh9ON-103" value="&lt;font style=&quot;font-size: 18px;&quot;&gt;&lt;b&gt;airlines&lt;/b&gt;&lt;/font&gt;" style="swimlane;fontStyle=0;childLayout=stackLayout;horizontal=1;startSize=40;fillColor=#0050ef;horizontalStack=0;resizeParent=1;resizeParentMax=0;resizeLast=0;collapsible=1;marginBottom=0;whiteSpace=wrap;html=1;fontColor=#ffffff;strokeColor=#001DBC;labelBackgroundColor=none;" vertex="1" parent="1">
          <mxGeometry x="7240" y="1720" width="360" height="160" as="geometry" />
        </mxCell>
        <mxCell id="l3O2OO2_3pEZGnwRh9ON-104" value="&lt;b style=&quot;font-size: 14px;&quot;&gt;id&lt;/b&gt;: smallserial PK" style="text;strokeColor=#001DBC;fillColor=#0050ef;align=left;verticalAlign=middle;spacingLeft=4;spacingRight=4;overflow=hidden;rotatable=0;points=[[0,0.5],[1,0.5]];portConstraint=eastwest;whiteSpace=wrap;html=1;labelBackgroundColor=none;fontColor=#ffffff;fontSize=14;" vertex="1" parent="l3O2OO2_3pEZGnwRh9ON-103">
          <mxGeometry y="40" width="360" height="40" as="geometry" />
        </mxCell>
        <mxCell id="l3O2OO2_3pEZGnwRh9ON-105" value="&lt;b style=&quot;font-size: 14px;&quot;&gt;name&lt;/b&gt;: text not null" style="text;align=left;verticalAlign=middle;spacingLeft=4;spacingRight=4;overflow=hidden;rotatable=0;points=[[0,0.5],[1,0.5]];portConstraint=eastwest;whiteSpace=wrap;html=1;labelBackgroundColor=none;fontSize=14;" vertex="1" parent="l3O2OO2_3pEZGnwRh9ON-103">
          <mxGeometry y="80" width="360" height="40" as="geometry" />
        </mxCell>
        <mxCell id="l3O2OO2_3pEZGnwRh9ON-106" value="&lt;b&gt;code: &lt;/b&gt;text not null unique" style="text;align=left;verticalAlign=middle;spacingLeft=4;spacingRight=4;overflow=hidden;rotatable=0;points=[[0,0.5],[1,0.5]];portConstraint=eastwest;whiteSpace=wrap;html=1;labelBackgroundColor=none;fontSize=14;" vertex="1" parent="l3O2OO2_3pEZGnwRh9ON-103">
          <mxGeometry y="120" width="360" height="40" as="geometry" />
        </mxCell>
        <mxCell id="l3O2OO2_3pEZGnwRh9ON-112" style="edgeStyle=orthogonalEdgeStyle;shape=connector;rounded=1;orthogonalLoop=1;jettySize=auto;html=1;entryX=0;entryY=0.5;entryDx=0;entryDy=0;labelBackgroundColor=default;strokeColor=#001DBC;strokeWidth=2;align=center;verticalAlign=middle;fontFamily=Helvetica;fontSize=11;fontColor=default;endArrow=classic;fillColor=#0050ef;" edge="1" parent="1" source="l3O2OO2_3pEZGnwRh9ON-27" target="l3O2OO2_3pEZGnwRh9ON-104">
          <mxGeometry relative="1" as="geometry">
            <Array as="points">
              <mxPoint x="7150" y="1270" />
              <mxPoint x="7150" y="1790" />
              <mxPoint x="7240" y="1790" />
            </Array>
          </mxGeometry>
        </mxCell>
        <mxCell id="l3O2OO2_3pEZGnwRh9ON-113" style="edgeStyle=orthogonalEdgeStyle;shape=connector;rounded=1;orthogonalLoop=1;jettySize=auto;html=1;entryX=0;entryY=0.5;entryDx=0;entryDy=0;labelBackgroundColor=default;strokeColor=#001DBC;strokeWidth=2;align=center;verticalAlign=middle;fontFamily=Helvetica;fontSize=11;fontColor=default;endArrow=classic;fillColor=#0050ef;" edge="1" parent="1" source="l3O2OO2_3pEZGnwRh9ON-26" target="l3O2OO2_3pEZGnwRh9ON-30">
          <mxGeometry relative="1" as="geometry">
            <Array as="points">
              <mxPoint x="7080" y="1230" />
              <mxPoint x="7080" y="2030" />
              <mxPoint x="7240" y="2030" />
            </Array>
          </mxGeometry>
        </mxCell>
        <mxCell id="l3O2OO2_3pEZGnwRh9ON-117" value="&lt;font style=&quot;font-size: 18px;&quot;&gt;&lt;b&gt;[ rewards ]&lt;br&gt;&lt;/b&gt;&lt;/font&gt;" style="swimlane;fontStyle=0;childLayout=stackLayout;horizontal=1;startSize=40;fillColor=#09555B;horizontalStack=0;resizeParent=1;resizeParentMax=0;resizeLast=0;collapsible=1;marginBottom=0;whiteSpace=wrap;html=1;fontColor=#EEEEEE;strokeColor=#098591;labelBackgroundColor=none;strokeWidth=5;" vertex="1" parent="1">
          <mxGeometry x="8600" y="1560" width="360" height="320" as="geometry" />
        </mxCell>
        <mxCell id="l3O2OO2_3pEZGnwRh9ON-118" value="&lt;b style=&quot;font-size: 14px;&quot;&gt;id&lt;/b&gt;: uuid PK" style="text;strokeColor=#BAC8D3;fillColor=#09555B;align=left;verticalAlign=middle;spacingLeft=4;spacingRight=4;overflow=hidden;rotatable=0;points=[[0,0.5],[1,0.5]];portConstraint=eastwest;whiteSpace=wrap;html=1;labelBackgroundColor=none;fontColor=#EEEEEE;fontSize=14;" vertex="1" parent="l3O2OO2_3pEZGnwRh9ON-117">
          <mxGeometry y="40" width="360" height="40" as="geometry" />
        </mxCell>
        <mxCell id="l3O2OO2_3pEZGnwRh9ON-119" value="&lt;b&gt;created_at: &lt;/b&gt;timestamp not null" style="text;strokeColor=none;fillColor=none;align=left;verticalAlign=middle;spacingLeft=4;spacingRight=4;overflow=hidden;rotatable=0;points=[[0,0.5],[1,0.5]];portConstraint=eastwest;whiteSpace=wrap;html=1;labelBackgroundColor=none;fontColor=#EEEEEE;fontSize=14;" vertex="1" parent="l3O2OO2_3pEZGnwRh9ON-117">
          <mxGeometry y="80" width="360" height="40" as="geometry" />
        </mxCell>
        <mxCell id="l3O2OO2_3pEZGnwRh9ON-120" value="&lt;b&gt;starts_at: &lt;/b&gt;timestamp not null" style="text;strokeColor=none;fillColor=none;align=left;verticalAlign=middle;spacingLeft=4;spacingRight=4;overflow=hidden;rotatable=0;points=[[0,0.5],[1,0.5]];portConstraint=eastwest;whiteSpace=wrap;html=1;labelBackgroundColor=none;fontColor=#EEEEEE;fontSize=14;" vertex="1" parent="l3O2OO2_3pEZGnwRh9ON-117">
          <mxGeometry y="120" width="360" height="40" as="geometry" />
        </mxCell>
        <mxCell id="l3O2OO2_3pEZGnwRh9ON-121" value="&lt;b&gt;ends_at: &lt;/b&gt;timestamp null" style="text;strokeColor=none;fillColor=none;align=left;verticalAlign=middle;spacingLeft=4;spacingRight=4;overflow=hidden;rotatable=0;points=[[0,0.5],[1,0.5]];portConstraint=eastwest;whiteSpace=wrap;html=1;labelBackgroundColor=none;fontColor=#EEEEEE;fontSize=14;" vertex="1" parent="l3O2OO2_3pEZGnwRh9ON-117">
          <mxGeometry y="160" width="360" height="40" as="geometry" />
        </mxCell>
        <mxCell id="l3O2OO2_3pEZGnwRh9ON-122" value="&lt;b&gt;discriminator: text not null&lt;/b&gt;" style="text;strokeColor=none;fillColor=none;align=left;verticalAlign=middle;spacingLeft=4;spacingRight=4;overflow=hidden;rotatable=0;points=[[0,0.5],[1,0.5]];portConstraint=eastwest;whiteSpace=wrap;html=1;labelBackgroundColor=none;fontColor=#EEEEEE;fontSize=14;" vertex="1" parent="l3O2OO2_3pEZGnwRh9ON-117">
          <mxGeometry y="200" width="360" height="40" as="geometry" />
        </mxCell>
        <mxCell id="l3O2OO2_3pEZGnwRh9ON-123" value="&lt;font style=&quot;font-size: 18px;&quot;&gt;&lt;b&gt;[ dicriminator: PercentBonusPoints ]&lt;br&gt;&lt;/b&gt;&lt;/font&gt;" style="swimlane;fontStyle=0;childLayout=stackLayout;horizontal=1;startSize=40;horizontalStack=0;resizeParent=1;resizeParentMax=0;resizeLast=0;collapsible=1;marginBottom=0;whiteSpace=wrap;html=1;labelBackgroundColor=none;strokeWidth=5;fillColor=#647687;fontColor=#ffffff;strokeColor=#314354;" vertex="1" parent="l3O2OO2_3pEZGnwRh9ON-117">
          <mxGeometry y="240" width="360" height="80" as="geometry" />
        </mxCell>
        <mxCell id="l3O2OO2_3pEZGnwRh9ON-124" value="&lt;b&gt;percent_value: &lt;/b&gt;real not null" style="text;strokeColor=none;fillColor=none;align=left;verticalAlign=middle;spacingLeft=4;spacingRight=4;overflow=hidden;rotatable=0;points=[[0,0.5],[1,0.5]];portConstraint=eastwest;whiteSpace=wrap;html=1;labelBackgroundColor=none;fontColor=#EEEEEE;fontSize=14;" vertex="1" parent="l3O2OO2_3pEZGnwRh9ON-123">
          <mxGeometry y="40" width="360" height="40" as="geometry" />
        </mxCell>
        <mxCell id="l3O2OO2_3pEZGnwRh9ON-132" value="&lt;font style=&quot;font-size: 18px;&quot;&gt;&lt;b&gt;[ bonus_changes ]&lt;br&gt;&lt;/b&gt;&lt;/font&gt;" style="swimlane;fontStyle=0;childLayout=stackLayout;horizontal=1;startSize=40;fillColor=#6a00ff;horizontalStack=0;resizeParent=1;resizeParentMax=0;resizeLast=0;collapsible=1;marginBottom=0;whiteSpace=wrap;html=1;fontColor=#ffffff;strokeColor=#3700CC;labelBackgroundColor=none;strokeWidth=5;" vertex="1" parent="1">
          <mxGeometry x="9120" y="240" width="360" height="240" as="geometry" />
        </mxCell>
        <mxCell id="l3O2OO2_3pEZGnwRh9ON-133" value="&lt;b style=&quot;font-size: 14px;&quot;&gt;id&lt;/b&gt;: uuid PK" style="text;strokeColor=#3700CC;fillColor=#6a00ff;align=left;verticalAlign=middle;spacingLeft=4;spacingRight=4;overflow=hidden;rotatable=0;points=[[0,0.5],[1,0.5]];portConstraint=eastwest;whiteSpace=wrap;html=1;labelBackgroundColor=none;fontColor=#ffffff;fontSize=14;" vertex="1" parent="l3O2OO2_3pEZGnwRh9ON-132">
          <mxGeometry y="40" width="360" height="40" as="geometry" />
        </mxCell>
        <mxCell id="l3O2OO2_3pEZGnwRh9ON-134" value="&lt;b&gt;changed_at: timestamp not null&lt;/b&gt;" style="text;strokeColor=none;fillColor=none;align=left;verticalAlign=middle;spacingLeft=4;spacingRight=4;overflow=hidden;rotatable=0;points=[[0,0.5],[1,0.5]];portConstraint=eastwest;whiteSpace=wrap;html=1;labelBackgroundColor=none;fontColor=#EEEEEE;fontSize=14;" vertex="1" parent="l3O2OO2_3pEZGnwRh9ON-132">
          <mxGeometry y="80" width="360" height="40" as="geometry" />
        </mxCell>
        <mxCell id="l3O2OO2_3pEZGnwRh9ON-135" value="&lt;b&gt;value: int not null&lt;/b&gt;" style="text;strokeColor=none;fillColor=none;align=left;verticalAlign=middle;spacingLeft=4;spacingRight=4;overflow=hidden;rotatable=0;points=[[0,0.5],[1,0.5]];portConstraint=eastwest;whiteSpace=wrap;html=1;labelBackgroundColor=none;fontColor=#EEEEEE;fontSize=14;" vertex="1" parent="l3O2OO2_3pEZGnwRh9ON-132">
          <mxGeometry y="120" width="360" height="40" as="geometry" />
        </mxCell>
        <mxCell id="l3O2OO2_3pEZGnwRh9ON-137" value="&lt;b&gt;user_id: uuid not null FK users&lt;/b&gt;" style="text;strokeColor=none;fillColor=none;align=left;verticalAlign=middle;spacingLeft=4;spacingRight=4;overflow=hidden;rotatable=0;points=[[0,0.5],[1,0.5]];portConstraint=eastwest;whiteSpace=wrap;html=1;labelBackgroundColor=none;fontColor=#EEEEEE;fontSize=14;" vertex="1" parent="l3O2OO2_3pEZGnwRh9ON-132">
          <mxGeometry y="160" width="360" height="40" as="geometry" />
        </mxCell>
        <mxCell id="l3O2OO2_3pEZGnwRh9ON-136" value="&lt;b&gt;purchase_id: uuid not null FK purchases&lt;/b&gt;" style="text;strokeColor=none;fillColor=none;align=left;verticalAlign=middle;spacingLeft=4;spacingRight=4;overflow=hidden;rotatable=0;points=[[0,0.5],[1,0.5]];portConstraint=eastwest;whiteSpace=wrap;html=1;labelBackgroundColor=none;fontColor=#EEEEEE;fontSize=14;" vertex="1" parent="l3O2OO2_3pEZGnwRh9ON-132">
          <mxGeometry y="200" width="360" height="40" as="geometry" />
        </mxCell>
        <mxCell id="l3O2OO2_3pEZGnwRh9ON-138" value="&lt;font style=&quot;font-size: 18px;&quot;&gt;&lt;b&gt;[ price_changes ]&lt;br&gt;&lt;/b&gt;&lt;/font&gt;" style="swimlane;fontStyle=0;childLayout=stackLayout;horizontal=1;startSize=40;fillColor=#6a00ff;horizontalStack=0;resizeParent=1;resizeParentMax=0;resizeLast=0;collapsible=1;marginBottom=0;whiteSpace=wrap;html=1;fontColor=#ffffff;strokeColor=#3700CC;labelBackgroundColor=none;strokeWidth=5;" vertex="1" parent="1">
          <mxGeometry x="8600" y="250" width="360" height="240" as="geometry" />
        </mxCell>
        <mxCell id="l3O2OO2_3pEZGnwRh9ON-139" value="&lt;b style=&quot;font-size: 14px;&quot;&gt;id&lt;/b&gt;: uuid PK" style="text;strokeColor=#3700CC;fillColor=#6a00ff;align=left;verticalAlign=middle;spacingLeft=4;spacingRight=4;overflow=hidden;rotatable=0;points=[[0,0.5],[1,0.5]];portConstraint=eastwest;whiteSpace=wrap;html=1;labelBackgroundColor=none;fontColor=#ffffff;fontSize=14;" vertex="1" parent="l3O2OO2_3pEZGnwRh9ON-138">
          <mxGeometry y="40" width="360" height="40" as="geometry" />
        </mxCell>
        <mxCell id="l3O2OO2_3pEZGnwRh9ON-140" value="&lt;b&gt;changed_at: timestamp not null&lt;/b&gt;" style="text;strokeColor=none;fillColor=none;align=left;verticalAlign=middle;spacingLeft=4;spacingRight=4;overflow=hidden;rotatable=0;points=[[0,0.5],[1,0.5]];portConstraint=eastwest;whiteSpace=wrap;html=1;labelBackgroundColor=none;fontColor=#EEEEEE;fontSize=14;" vertex="1" parent="l3O2OO2_3pEZGnwRh9ON-138">
          <mxGeometry y="80" width="360" height="40" as="geometry" />
        </mxCell>
        <mxCell id="l3O2OO2_3pEZGnwRh9ON-141" value="&lt;b&gt;value: int not null&lt;/b&gt;" style="text;strokeColor=none;fillColor=none;align=left;verticalAlign=middle;spacingLeft=4;spacingRight=4;overflow=hidden;rotatable=0;points=[[0,0.5],[1,0.5]];portConstraint=eastwest;whiteSpace=wrap;html=1;labelBackgroundColor=none;fontColor=#EEEEEE;fontSize=14;" vertex="1" parent="l3O2OO2_3pEZGnwRh9ON-138">
          <mxGeometry y="120" width="360" height="40" as="geometry" />
        </mxCell>
        <mxCell id="l3O2OO2_3pEZGnwRh9ON-142" value="&lt;b&gt;staff_id: uuid not null FK -&amp;gt; staff&lt;/b&gt;" style="text;strokeColor=none;fillColor=none;align=left;verticalAlign=middle;spacingLeft=4;spacingRight=4;overflow=hidden;rotatable=0;points=[[0,0.5],[1,0.5]];portConstraint=eastwest;whiteSpace=wrap;html=1;labelBackgroundColor=none;fontColor=#EEEEEE;fontSize=14;" vertex="1" parent="l3O2OO2_3pEZGnwRh9ON-138">
          <mxGeometry y="160" width="360" height="40" as="geometry" />
        </mxCell>
        <mxCell id="l3O2OO2_3pEZGnwRh9ON-143" value="&lt;b&gt;product_id: uuid not null FK -&amp;gt; products&lt;/b&gt;" style="text;strokeColor=none;fillColor=none;align=left;verticalAlign=middle;spacingLeft=4;spacingRight=4;overflow=hidden;rotatable=0;points=[[0,0.5],[1,0.5]];portConstraint=eastwest;whiteSpace=wrap;html=1;labelBackgroundColor=none;fontColor=#EEEEEE;fontSize=14;" vertex="1" parent="l3O2OO2_3pEZGnwRh9ON-138">
          <mxGeometry y="200" width="360" height="40" as="geometry" />
        </mxCell>
        <mxCell id="l3O2OO2_3pEZGnwRh9ON-152" value="" style="edgeStyle=entityRelationEdgeStyle;fontSize=12;html=1;endArrow=ERoneToMany;startArrow=ERzeroToMany;rounded=0;strokeWidth=2;strokeColor=#A50040;" edge="1" parent="1" source="l3O2OO2_3pEZGnwRh9ON-45" target="l3O2OO2_3pEZGnwRh9ON-48">
          <mxGeometry width="100" height="100" relative="1" as="geometry">
            <mxPoint x="7040" y="490" as="sourcePoint" />
            <mxPoint x="7140" y="390" as="targetPoint" />
          </mxGeometry>
        </mxCell>
        <mxCell id="l3O2OO2_3pEZGnwRh9ON-153" value="" style="edgeStyle=entityRelationEdgeStyle;fontSize=12;html=1;endArrow=ERone;endFill=1;rounded=0;strokeWidth=2;strokeColor=#A50040;" edge="1" parent="1" source="l3O2OO2_3pEZGnwRh9ON-63" target="l3O2OO2_3pEZGnwRh9ON-44">
          <mxGeometry width="100" height="100" relative="1" as="geometry">
            <mxPoint x="7550" y="300" as="sourcePoint" />
            <mxPoint x="7650" y="200" as="targetPoint" />
          </mxGeometry>
        </mxCell>
        <mxCell id="l3O2OO2_3pEZGnwRh9ON-157" value="" style="edgeStyle=entityRelationEdgeStyle;fontSize=12;html=1;endArrow=ERzeroToMany;startArrow=ERmandOne;rounded=0;strokeWidth=2;strokeColor=#FF0000;" edge="1" parent="1" source="l3O2OO2_3pEZGnwRh9ON-35" target="l3O2OO2_3pEZGnwRh9ON-89">
          <mxGeometry width="100" height="100" relative="1" as="geometry">
            <mxPoint x="9490" y="1120" as="sourcePoint" />
            <mxPoint x="9590" y="1020" as="targetPoint" />
            <Array as="points">
              <mxPoint x="9710" y="880" />
              <mxPoint x="9990" y="920" />
            </Array>
          </mxGeometry>
        </mxCell>
        <mxCell id="l3O2OO2_3pEZGnwRh9ON-156" value="" style="edgeStyle=entityRelationEdgeStyle;fontSize=12;html=1;endArrow=ERoneToMany;startArrow=ERmandOne;rounded=0;strokeWidth=2;strokeColor=#098591;" edge="1" parent="1" source="l3O2OO2_3pEZGnwRh9ON-90" target="l3O2OO2_3pEZGnwRh9ON-71">
          <mxGeometry width="100" height="100" relative="1" as="geometry">
            <mxPoint x="9448" y="1532" as="sourcePoint" />
            <mxPoint x="9390" y="1360" as="targetPoint" />
            <Array as="points">
              <mxPoint x="9550" y="1460" />
              <mxPoint x="9550" y="1460" />
            </Array>
          </mxGeometry>
        </mxCell>
        <mxCell id="l3O2OO2_3pEZGnwRh9ON-160" value="" style="edgeStyle=entityRelationEdgeStyle;fontSize=12;html=1;endArrow=ERzeroToMany;startArrow=ERmandOne;rounded=0;strokeWidth=2;strokeColor=#FF0000;" edge="1" parent="1" source="l3O2OO2_3pEZGnwRh9ON-34" target="l3O2OO2_3pEZGnwRh9ON-137">
          <mxGeometry width="100" height="100" relative="1" as="geometry">
            <mxPoint x="9770" y="860" as="sourcePoint" />
            <mxPoint x="9490" y="1240" as="targetPoint" />
            <Array as="points">
              <mxPoint x="9720" y="890" />
              <mxPoint x="10000" y="930" />
            </Array>
          </mxGeometry>
        </mxCell>
        <mxCell id="l3O2OO2_3pEZGnwRh9ON-162" value="" style="edgeStyle=entityRelationEdgeStyle;fontSize=12;html=1;endArrow=ERoneToMany;startArrow=ERzeroToMany;rounded=0;strokeColor=#098591;strokeWidth=2;" edge="1" parent="1" source="l3O2OO2_3pEZGnwRh9ON-118" target="l3O2OO2_3pEZGnwRh9ON-82">
          <mxGeometry width="100" height="100" relative="1" as="geometry">
            <mxPoint x="8940" y="1570" as="sourcePoint" />
            <mxPoint x="9040" y="1470" as="targetPoint" />
          </mxGeometry>
        </mxCell>
        <mxCell id="l3O2OO2_3pEZGnwRh9ON-166" value="" style="edgeStyle=entityRelationEdgeStyle;fontSize=12;html=1;endArrow=ERzeroToMany;startArrow=ERmandOne;rounded=0;strokeWidth=2;strokeColor=#FF0000;" edge="1" parent="1" source="l3O2OO2_3pEZGnwRh9ON-87" target="l3O2OO2_3pEZGnwRh9ON-136">
          <mxGeometry width="100" height="100" relative="1" as="geometry">
            <mxPoint x="9770" y="860" as="sourcePoint" />
            <mxPoint x="9490" y="1280" as="targetPoint" />
            <Array as="points">
              <mxPoint x="9720" y="890" />
              <mxPoint x="10000" y="930" />
            </Array>
          </mxGeometry>
        </mxCell>
        <mxCell id="l3O2OO2_3pEZGnwRh9ON-168" value="" style="edgeStyle=entityRelationEdgeStyle;fontSize=12;html=1;endArrow=ERzeroToMany;startArrow=ERmandOne;rounded=0;strokeWidth=2;strokeColor=#098591;exitX=1;exitY=0.5;exitDx=0;exitDy=0;" edge="1" parent="1" source="l3O2OO2_3pEZGnwRh9ON-79" target="l3O2OO2_3pEZGnwRh9ON-70">
          <mxGeometry width="100" height="100" relative="1" as="geometry">
            <mxPoint x="8820" y="1720" as="sourcePoint" />
            <mxPoint x="8920" y="1620" as="targetPoint" />
          </mxGeometry>
        </mxCell>
        <mxCell id="l3O2OO2_3pEZGnwRh9ON-170" value="" style="edgeStyle=entityRelationEdgeStyle;fontSize=12;html=1;endArrow=ERoneToMany;startArrow=ERmandOne;rounded=0;exitX=1;exitY=0.5;exitDx=0;exitDy=0;strokeWidth=2;strokeColor=#FF0000;" edge="1" parent="1" source="l3O2OO2_3pEZGnwRh9ON-78" target="l3O2OO2_3pEZGnwRh9ON-143">
          <mxGeometry width="100" height="100" relative="1" as="geometry">
            <mxPoint x="9020" y="1560" as="sourcePoint" />
            <mxPoint x="9070" y="1170" as="targetPoint" />
            <Array as="points">
              <mxPoint x="9040" y="1480" />
            </Array>
          </mxGeometry>
        </mxCell>
        <mxCell id="l3O2OO2_3pEZGnwRh9ON-172" value="" style="edgeStyle=entityRelationEdgeStyle;fontSize=12;html=1;endArrow=ERzeroToMany;startArrow=ERmandOne;rounded=0;strokeWidth=2;strokeColor=#FF0000;" edge="1" parent="1" source="l3O2OO2_3pEZGnwRh9ON-58" target="l3O2OO2_3pEZGnwRh9ON-142">
          <mxGeometry width="100" height="100" relative="1" as="geometry">
            <mxPoint x="8450" y="580" as="sourcePoint" />
            <mxPoint x="8550" y="480" as="targetPoint" />
          </mxGeometry>
        </mxCell>
        <mxCell id="l3O2OO2_3pEZGnwRh9ON-174" value="" style="edgeStyle=entityRelationEdgeStyle;fontSize=12;html=1;endArrow=ERoneToMany;startArrow=ERmandOne;rounded=0;strokeWidth=2;strokeColor=#FF0000;" edge="1" parent="1" source="l3O2OO2_3pEZGnwRh9ON-4" target="l3O2OO2_3pEZGnwRh9ON-84">
          <mxGeometry width="100" height="100" relative="1" as="geometry">
            <mxPoint x="8310" y="1140" as="sourcePoint" />
            <mxPoint x="8410" y="1040" as="targetPoint" />
          </mxGeometry>
        </mxCell>
        <mxCell id="l3O2OO2_3pEZGnwRh9ON-175" value="" style="edgeStyle=entityRelationEdgeStyle;fontSize=12;html=1;endArrow=ERoneToMany;startArrow=ERmandOne;rounded=0;strokeColor=#FF0000;strokeWidth=2;" edge="1" parent="1" source="l3O2OO2_3pEZGnwRh9ON-94" target="l3O2OO2_3pEZGnwRh9ON-85">
          <mxGeometry width="100" height="100" relative="1" as="geometry">
            <mxPoint x="8240" y="1720" as="sourcePoint" />
            <mxPoint x="8340" y="1620" as="targetPoint" />
          </mxGeometry>
        </mxCell>
        <mxCell id="l3O2OO2_3pEZGnwRh9ON-176" value="" style="edgeStyle=entityRelationEdgeStyle;fontSize=12;html=1;endArrow=ERoneToMany;startArrow=ERmandOne;rounded=0;strokeWidth=2;strokeColor=#3333FF;" edge="1" parent="1" source="l3O2OO2_3pEZGnwRh9ON-30" target="l3O2OO2_3pEZGnwRh9ON-100">
          <mxGeometry width="100" height="100" relative="1" as="geometry">
            <mxPoint x="7540" y="2340" as="sourcePoint" />
            <mxPoint x="7640" y="2240" as="targetPoint" />
          </mxGeometry>
        </mxCell>
        <mxCell id="l3O2OO2_3pEZGnwRh9ON-177" value="" style="edgeStyle=entityRelationEdgeStyle;fontSize=12;html=1;endArrow=ERzeroToMany;startArrow=ERmandOne;rounded=0;strokeWidth=2;fillColor=#0050ef;strokeColor=#001DBC;" edge="1" parent="1" source="l3O2OO2_3pEZGnwRh9ON-14" target="l3O2OO2_3pEZGnwRh9ON-28">
          <mxGeometry width="100" height="100" relative="1" as="geometry">
            <mxPoint x="7110" y="1480" as="sourcePoint" />
            <mxPoint x="7210" y="1380" as="targetPoint" />
          </mxGeometry>
        </mxCell>
        <mxCell id="l3O2OO2_3pEZGnwRh9ON-178" value="" style="edgeStyle=entityRelationEdgeStyle;fontSize=12;html=1;endArrow=ERzeroToMany;startArrow=ERmandOne;rounded=0;strokeWidth=2;fillColor=#0050ef;strokeColor=#001DBC;" edge="1" parent="1" source="l3O2OO2_3pEZGnwRh9ON-25" target="l3O2OO2_3pEZGnwRh9ON-5">
          <mxGeometry width="100" height="100" relative="1" as="geometry">
            <mxPoint x="6990" y="1180" as="sourcePoint" />
            <mxPoint x="7090" y="1080" as="targetPoint" />
          </mxGeometry>
        </mxCell>
        <mxCell id="l3O2OO2_3pEZGnwRh9ON-179" value="" style="edgeStyle=entityRelationEdgeStyle;fontSize=12;html=1;endArrow=ERzeroToMany;startArrow=ERmandOne;rounded=0;fillColor=#0050ef;strokeColor=#001DBC;strokeWidth=2;" edge="1" parent="1" source="l3O2OO2_3pEZGnwRh9ON-20" target="l3O2OO2_3pEZGnwRh9ON-12">
          <mxGeometry width="100" height="100" relative="1" as="geometry">
            <mxPoint x="8280" y="1590" as="sourcePoint" />
            <mxPoint x="8380" y="1490" as="targetPoint" />
          </mxGeometry>
        </mxCell>
        <mxCell id="l3O2OO2_3pEZGnwRh9ON-180" value="" style="edgeStyle=entityRelationEdgeStyle;fontSize=12;html=1;endArrow=ERoneToMany;startArrow=ERmandOne;rounded=0;exitX=1;exitY=0.5;exitDx=0;exitDy=0;strokeWidth=2;strokeColor=#3333FF;" edge="1" parent="1" source="l3O2OO2_3pEZGnwRh9ON-18" target="l3O2OO2_3pEZGnwRh9ON-23">
          <mxGeometry width="100" height="100" relative="1" as="geometry">
            <mxPoint x="7680" y="1640" as="sourcePoint" />
            <mxPoint x="7780" y="1540" as="targetPoint" />
          </mxGeometry>
        </mxCell>
        <mxCell id="l3O2OO2_3pEZGnwRh9ON-181" value="" style="edgeStyle=entityRelationEdgeStyle;fontSize=12;html=1;endArrow=ERzeroToMany;startArrow=ERmandOne;rounded=0;entryX=0;entryY=0.5;entryDx=0;entryDy=0;fillColor=#0050ef;strokeColor=#001DBC;strokeWidth=2;" edge="1" parent="1" source="l3O2OO2_3pEZGnwRh9ON-15" target="l3O2OO2_3pEZGnwRh9ON-7">
          <mxGeometry width="100" height="100" relative="1" as="geometry">
            <mxPoint x="7740" y="1420" as="sourcePoint" />
            <mxPoint x="7840" y="1320" as="targetPoint" />
          </mxGeometry>
        </mxCell>
      </root>
    </mxGraphModel>
  </diagram>
</mxfile>
